<?xml version="1.0" encoding="UTF-8"?>
<svg id="Layer_2" data-name="Layer 2" xmlns="http://www.w3.org/2000/svg" viewBox="0 0 166.37 168.29">
  <defs>
    <style>
      .cls-1 {
        fill: #fce157;
      }

      .cls-2 {
        fill: #9ec3e1;
      }

      .cls-3 {
        fill: #a47eb6;
      }

      .cls-4 {
        fill: #f498b5;
      }

      .cls-5 {
        fill: #76c39a;
      }

      .cls-6 {
        fill: #662d91;
      }

      .cls-7 {
        fill: #f6944c;
      }
    </style>
  </defs>
  <g id="Layer_1-2" data-name="Layer 1">
    <g>
      <polygon class="cls-7" points="147.11 34.8 146.38 34.25 160.56 62.81 160.56 62.81 160.37 61.49 147.11 34.8"/>
      <path class="cls-7" d="M146.82,34.78l13.44,27.06-.04-.3-13.23-26.63-.17-.13ZM160.75,62.96h-.28l-.04-.09-14.48-29.16,1.31,1.01,13.27,26.74.23,1.49Z"/>
      <path class="cls-7" d="M15.43,33.67c1.71-4.96,5.31-8.9,10.12-11.09l4.12-1.88.54-.7-4.85,2.21c-4.91,2.24-8.58,6.26-10.33,11.32l-3.86,11.18.8-1.04,3.45-10Z"/>
      <path class="cls-7" d="M29.7,20.4l-4.27,1.94c-4.87,2.22-8.51,6.21-10.25,11.23l-3.55,10.28.2-.26,3.44-9.98c1.73-5,5.35-8.97,10.2-11.18l4.09-1.86.13-.17ZM10.71,45.57l4.17-12.09c1.76-5.1,5.46-9.15,10.41-11.41l5.42-2.47-.99,1.25-4.12,1.88c-4.78,2.17-8.34,6.08-10.04,11l-3.48,10.05-1.39,1.8Z"/>
      <polygon class="cls-7" points="108.99 160.81 135.66 148.66 136.2 147.96 107.67 160.96 108.99 160.81"/>
      <path class="cls-7" d="M135.69,148.37l-27.06,12.33.32-.04,26.61-12.12.13-.17ZM106.7,161.23l30.01-13.67-.99,1.25-26.71,12.16-2.31.26Z"/>
      <path class="cls-7" d="M69.94,2.36c4.81-2.2,10.27-2.38,15.37-.52l4.36,1.59.9-.1-5.13-1.87c-5.2-1.89-10.77-1.71-15.69.53l-10.86,4.95,1.33-.15,9.71-4.42Z"/>
      <path class="cls-7" d="M78.19.31c-2.91,0-5.73.61-8.37,1.81l-9.96,4.54.32-.04,9.69-4.41c2.63-1.2,5.43-1.81,8.33-1.81,2.42,0,4.83.43,7.16,1.28l4.33,1.58.2-.02-4.51-1.64c-2.34-.85-4.77-1.28-7.2-1.28ZM57.93,7.2l11.76-5.36c2.68-1.22,5.54-1.84,8.5-1.84,2.47,0,4.93.44,7.31,1.31l5.76,2.1-1.59.18h-.04s-4.36-1.6-4.36-1.6c-2.3-.84-4.67-1.26-7.05-1.26-2.85,0-5.61.6-8.2,1.78l-9.76,4.44-2.32.26Z"/>
      <polygon class="cls-7" points="47.02 154.37 75.25 164.66 76.15 164.55 45.94 153.55 47.02 154.37"/>
      <path class="cls-7" d="M47.1,154.23l28.17,10.26.2-.02-28.61-10.42.24.18ZM75.23,164.81h-.04s-28.27-10.32-28.27-10.32l-1.9-1.45,31.8,11.59-1.59.18Z"/>
      <path class="cls-7" d="M132.31,18.95c5.1,1.86,9.22,5.53,11.62,10.35l2.05,4.13.73.55-2.41-4.85c-2.44-4.92-6.65-8.67-11.85-10.56l-11.5-4.19,1.08.82,10.28,3.75Z"/>
      <path class="cls-7" d="M146.1,33.33l.17.13-2.11-4.25c-2.43-4.88-6.6-8.61-11.77-10.49l-10.52-3.83.24.18,10.26,3.74c5.13,1.87,9.29,5.57,11.7,10.43l2.04,4.09ZM147.14,34.52l-1.31-1.02-2.05-4.13c-2.38-4.78-6.47-8.43-11.53-10.27l-10.32-3.77-1.9-1.45,12.47,4.54c5.24,1.91,9.48,5.69,11.94,10.64l2.71,5.45Z"/>
      <path class="cls-7" d="M96.74,165.93c-4.81,2.19-10.27,2.38-15.37.52l-4.36-1.59-.9.1,5.13,1.87c5.2,1.89,10.77,1.71,15.68-.53l10.86-4.95-1.33.15-9.72,4.43Z"/>
      <path class="cls-7" d="M76.79,165.05l4.51,1.64c2.34.85,4.76,1.28,7.2,1.28,2.91,0,5.72-.61,8.37-1.81l9.96-4.54-.32.04-9.69,4.42c-2.63,1.2-5.43,1.81-8.33,1.81-2.42,0-4.83-.43-7.16-1.28l-4.33-1.58-.2.02ZM88.5,168.29c-2.47,0-4.93-.44-7.31-1.3l-5.76-2.1,1.6-.18h.04s4.36,1.6,4.36,1.6c2.3.84,4.67,1.26,7.05,1.26,2.85,0,5.61-.6,8.2-1.78l9.76-4.44,2.32-.26-11.77,5.36c-2.68,1.22-5.54,1.84-8.49,1.84Z"/>
      <path class="cls-7" d="M34.38,149.34c-5.1-1.86-9.22-5.53-11.62-10.35l-2.05-4.13-.73-.56,2.41,4.85c2.44,4.92,6.65,8.67,11.85,10.56l11.5,4.19-1.08-.82-10.28-3.74Z"/>
      <path class="cls-7" d="M20.42,134.84l2.11,4.25c2.43,4.88,6.61,8.61,11.77,10.49l10.52,3.83-.24-.18-10.26-3.74c-5.13-1.87-9.29-5.57-11.7-10.43l-2.03-4.09-.17-.13ZM46.66,154.41l-12.47-4.54c-5.24-1.91-9.48-5.69-11.94-10.64l-2.71-5.45,1.31,1.02,2.05,4.13c2.38,4.79,6.47,8.43,11.53,10.28l10.32,3.77,1.9,1.45Z"/>
      <polygon class="cls-7" points="20.31 134.04 6.96 107.16 6.51 107.16 19.58 133.49 20.31 134.04"/>
      <path class="cls-7" d="M19.71,133.38l.17.13-13.01-26.19h-.1l12.95,26.07ZM20.75,134.58l-1.31-1.02-13.19-26.55h.8l.04.09,13.65,27.48Z"/>
      <polygon class="cls-7" points="119.67 13.92 91.44 3.64 90.54 3.74 120.75 14.74 119.67 13.92"/>
      <path class="cls-7" d="M91.22,3.82l28.61,10.42-.24-.18-28.17-10.26-.2.02ZM121.67,15.24l-31.8-11.59,1.59-.18h.04s28.27,10.32,28.27,10.32l1.9,1.45Z"/>
      <path class="cls-7" d="M151.26,134.62c-1.71,4.96-5.31,8.9-10.12,11.09l-4.13,1.88-.54.7,4.85-2.21c4.91-2.24,8.58-6.26,10.33-11.32l3.86-11.19-.8,1.04-3.45,10Z"/>
      <path class="cls-7" d="M137.11,147.72l-.13.17,4.28-1.95c4.87-2.22,8.51-6.21,10.25-11.23l3.55-10.28-.2.26-3.45,9.98c-1.73,5-5.35,8.97-10.21,11.18l-4.09,1.86ZM135.97,148.7l.98-1.25,4.12-1.88c4.77-2.17,8.34-6.08,10.04-11l3.48-10.05,1.39-1.8-4.18,12.09c-1.76,5.1-5.46,9.15-10.41,11.41l-5.42,2.47Z"/>
      <polygon class="cls-7" points="57.69 7.48 31.03 19.63 30.48 20.33 59.03 7.33 57.69 7.48"/>
      <path class="cls-7" d="M31.13,19.76l-.13.17,27.06-12.33-.32.04-26.61,12.12ZM29.97,20.74l.99-1.25,26.71-12.16,2.32-.27-30.02,13.67Z"/>
      <polygon class="cls-7" points="161.02 62.81 160.96 62.7 160.98 62.81 161.02 62.81"/>
      <polygon class="cls-7" points="161.27 62.96 160.84 62.96 160.66 61.74 161.27 62.96"/>
      <polygon class="cls-7" points="155.95 122.34 161.19 107.16 160.74 107.16 155.14 123.37 155.95 122.34"/>
      <path class="cls-7" d="M160.86,107.32l-5.25,15.2.2-.26,5.16-14.94h-.11ZM154.68,124.23l5.95-17.23h.77l-5.34,15.43-1.39,1.8Z"/>
      <polygon class="cls-7" points="10.74 45.95 4.92 62.81 5.37 62.81 11.55 44.91 10.74 45.95"/>
      <path class="cls-7" d="M5.15,62.65h.11l5.83-16.88-.2.26-5.74,16.62ZM5.48,62.96h-.77l5.92-17.1,1.39-1.8-6.53,18.9Z"/>
      <polygon class="cls-5" points="13.28 61.39 13.06 62.81 13.48 62.81 13.88 60.23 13.28 61.39"/>
      <path class="cls-5" d="M13.25,62.65h.1l.23-1.5-.15.29-.19,1.21ZM13.62,62.96h-.74l.26-1.64,1.04-2.02-.56,3.67Z"/>
      <path class="cls-5" d="M15.52,49.6c.72-4.68,3.26-8.74,7.15-11.44l3.26-2.26.41-.78-3.91,2.71c-3.98,2.75-6.58,6.91-7.31,11.7l-1.63,10.56.6-1.17,1.44-9.33Z"/>
      <path class="cls-5" d="M25.91,35.6l-3.4,2.35c-3.94,2.73-6.52,6.85-7.25,11.59l-1.48,9.61.15-.28,1.43-9.3c.73-4.72,3.29-8.82,7.21-11.54l3.23-2.24.1-.19ZM13.18,61.02l1.77-11.52c.74-4.83,3.36-9.02,7.38-11.8l4.43-3.07-.74,1.4-3.27,2.26c-3.85,2.67-6.37,6.69-7.08,11.33l-1.45,9.37-1.04,2.02Z"/>
      <polygon class="cls-5" points="62.62 152.4 88.91 157.19 89.77 156.93 61.42 151.77 62.62 152.4"/>
      <path class="cls-5" d="M62.68,152.25l26.23,4.77.19-.06-26.69-4.86.27.15ZM88.92,157.35h-.04s-26.33-4.81-26.33-4.81l-2.12-1.11,30.01,5.46-1.53.45Z"/>
      <polygon class="cls-5" points="19.15 116.32 34.94 137.9 35.75 138.33 18.72 115.05 19.15 116.32"/>
      <path class="cls-5" d="M35.04,137.78l.18.09-16.03-21.92.1.29,15.75,21.53ZM36.28,138.78l-1.47-.78-15.81-21.63-.75-2.23,18.03,24.64Z"/>
      <polygon class="cls-5" points="118.24 148.5 139.62 133.68 140.03 132.89 116.96 148.88 118.24 148.5"/>
      <path class="cls-5" d="M139.6,133.38l-21.75,15.07.31-.09,21.34-14.78.1-.19ZM116.07,149.3l24.39-16.89-.74,1.4-21.43,14.84-2.21.66Z"/>
      <path class="cls-5" d="M58.56,13.3c3.89-2.69,8.66-3.7,13.44-2.83l4.01.73.86-.26-4.81-.88c-4.89-.89-9.77.14-13.75,2.89l-8.78,6.08,1.28-.38,7.75-5.37Z"/>
      <path class="cls-5" d="M68.64,9.91c-3.69,0-7.23,1.1-10.23,3.18l-7.98,5.53.31-.09,7.73-5.36c2.99-2.07,6.51-3.16,10.18-3.16,1.12,0,2.26.1,3.38.31l3.98.72.19-.06-4.16-.76c-1.12-.21-2.27-.31-3.4-.31ZM48.64,19.47l9.59-6.64c3.05-2.12,6.65-3.23,10.41-3.23,1.15,0,2.31.11,3.46.31l5.46.99-1.53.45-4.05-.74c-1.1-.2-2.22-.3-3.32-.3-3.61,0-7.07,1.07-10,3.1l-7.79,5.39-2.22.66Z"/>
      <polygon class="cls-5" points="104.07 15.89 77.78 11.11 76.92 11.36 105.27 16.52 104.07 15.89"/>
      <path class="cls-5" d="M77.59,11.33l26.69,4.86-.27-.14-26.23-4.77-.19.06ZM106.26,16.86l-30.01-5.46,1.53-.45h.04s26.33,4.8,26.33,4.8l2.12,1.11Z"/>
      <polygon class="cls-5" points="153.27 107.16 152.95 107.16 152.81 108.07 153.27 107.16"/>
      <polygon class="cls-5" points="152.51 108.99 152.81 107.01 153.53 107.01 152.51 108.99"/>
      <polygon class="cls-5" points="48.45 19.79 27.06 34.61 26.66 35.4 49.73 19.42 48.45 19.79"/>
      <path class="cls-5" d="M27.18,34.72l-.1.19,21.75-15.07-.31.09-21.34,14.78ZM26.23,35.88l.74-1.4,21.43-14.84,2.22-.66-24.39,16.9Z"/>
      <polygon class="cls-5" points="147.54 51.97 131.75 30.39 130.94 29.96 147.97 53.24 147.54 51.97"/>
      <path class="cls-5" d="M131.46,30.41l16.03,21.92-.1-.28-15.75-21.54-.18-.09ZM148.44,54.15l-18.03-24.64,1.46.78,15.81,21.63.75,2.23Z"/>
      <polygon class="cls-5" points="17.92 113.96 12.95 107.16 12.45 107.16 18.35 115.23 17.92 113.96"/>
      <path class="cls-5" d="M12.76,107.32l5.12,7-.1-.29-4.91-6.71h-.11ZM18.82,116.14l-6.68-9.13h.89l5.04,6.9.75,2.23Z"/>
      <path class="cls-5" d="M108.13,154.99c-3.89,2.69-8.66,3.7-13.44,2.83l-4.01-.73-.86.26,4.81.88c4.89.89,9.77-.14,13.75-2.89l8.78-6.08-1.27.38-7.75,5.37Z"/>
      <path class="cls-5" d="M90.49,157.31l4.16.76c1.13.21,2.28.31,3.4.31,3.69,0,7.23-1.1,10.23-3.18l7.98-5.52-.31.09-7.73,5.35c-2.99,2.07-6.51,3.16-10.18,3.16-1.12,0-2.26-.1-3.38-.31l-3.98-.73-.19.06ZM98.05,158.69c-1.15,0-2.31-.11-3.46-.31l-5.46-.99,1.53-.45,4.05.74c1.1.2,2.22.3,3.32.3,3.61,0,7.07-1.07,10-3.11l7.79-5.39,2.21-.66-9.58,6.64c-3.05,2.12-6.65,3.23-10.41,3.23Z"/>
      <path class="cls-5" d="M148.34,53.06l.43,1.27,5.72,7.82c.16.22.31.43.46.65h.48c-.19-.3-.39-.6-.61-.88l-6.48-8.86Z"/>
      <path class="cls-5" d="M155.03,62.65h.11c-.16-.24-.3-.45-.44-.63l-5.88-8.04.1.29,5.71,7.8c.14.2.28.39.41.59ZM155.71,62.96h-.85l-.05-.07c-.15-.22-.3-.44-.45-.65l-5.74-7.86-.75-2.23,7.08,9.68c.19.26.37.53.61.89l.16.24Z"/>
      <path class="cls-5" d="M50.56,149.79c-4.78-.87-8.99-3.51-11.86-7.43l-2.41-3.29-.81-.43,2.89,3.95c2.93,4.01,7.24,6.72,12.13,7.61l10.79,1.96-1.2-.63-9.52-1.73Z"/>
      <path class="cls-5" d="M36,139.09l2.49,3.4c2.91,3.98,7.19,6.66,12.04,7.54l9.78,1.78-.27-.14-9.5-1.73c-4.82-.88-9.07-3.54-11.96-7.5l-2.39-3.26-.18-.09ZM62.28,152.5l-11.8-2.15c-4.93-.9-9.27-3.62-12.23-7.67l-3.29-4.49,1.46.78,2.41,3.29c2.84,3.89,7.02,6.51,11.76,7.37l9.57,1.75,2.12,1.11Z"/>
      <path class="cls-5" d="M116.13,18.5c4.78.87,8.99,3.51,11.86,7.43l2.41,3.29.81.43-2.89-3.95c-2.94-4.02-7.25-6.72-12.14-7.6l-10.79-1.96,1.2.63,9.53,1.73Z"/>
      <path class="cls-5" d="M130.5,29.1l.18.09-2.49-3.4c-2.91-3.98-7.19-6.66-12.04-7.54l-9.78-1.78.27.14,9.5,1.73c4.82.88,9.07,3.54,11.96,7.5l2.39,3.26ZM131.74,30.1l-1.46-.78-2.41-3.29c-2.85-3.89-7.02-6.51-11.76-7.37l-9.57-1.75-2.11-1.11,11.8,2.15c4.93.9,9.27,3.62,12.23,7.67l3.29,4.49Z"/>
      <path class="cls-5" d="M151.17,118.69c-.72,4.68-3.26,8.74-7.15,11.43l-3.26,2.26-.41.78,3.91-2.71c3.98-2.76,6.57-6.91,7.31-11.7l1.63-10.56-.6,1.17-1.44,9.33Z"/>
      <path class="cls-5" d="M140.88,132.5l-.1.19,3.4-2.35c3.94-2.73,6.51-6.85,7.25-11.59l1.48-9.61-.15.28-1.43,9.3c-.73,4.72-3.29,8.82-7.21,11.54l-3.23,2.24ZM139.93,133.66l.74-1.4,3.27-2.26c3.85-2.67,6.37-6.69,7.08-11.33l1.45-9.37,1.04-2.02-1.77,11.52c-.74,4.83-3.36,9.02-7.38,11.8l-4.43,3.07Z"/>
      <polygon class="cls-1" points="124.41 136.08 140.75 119.72 141 118.87 123.22 136.67 124.41 136.08"/>
      <path class="cls-1" d="M140.67,119.43l-16.65,16.67.29-.15,16.29-16.31.07-.21ZM122.43,137.25l18.91-18.93-.48,1.51-16.38,16.38-2.05,1.03Z"/>
      <path class="cls-1" d="M64.89,147.71c-4.34-.04-8.47-1.74-11.62-4.8l-2.58-2.51-.87-.28,3.17,3.07c3.23,3.13,7.46,4.88,11.91,4.92l9.82.09-1.29-.42-8.53-.08Z"/>
      <path class="cls-1" d="M50.41,140.49l2.68,2.6c3.2,3.1,7.39,4.83,11.81,4.87l8.79.08-.3-.1-8.51-.08c-4.38-.04-8.55-1.76-11.73-4.84l-2.56-2.48-.19-.06ZM75.73,148.37l-10.84-.1c-4.5-.04-8.76-1.8-12.02-4.96l-3.65-3.54,1.57.53,2.58,2.51c3.12,3.02,7.21,4.71,11.51,4.75l8.58.08,2.26.73Z"/>
      <polygon class="cls-1" points="76.06 148.22 99.76 148.44 100.56 148.04 74.77 147.8 76.06 148.22"/>
      <path class="cls-1" d="M76.09,148.06l23.64.22.18-.09-24.12-.22.3.1ZM99.8,148.59h-.04l-23.75-.22-2.26-.74,27.46.25-1.41.71Z"/>
      <path class="cls-1" d="M116.41,143.49c-2.99,3-7.03,4.63-11.38,4.59l-3.57-.03-.8.4,4.37.04c4.45.04,8.6-1.63,11.67-4.7l6.77-6.77-1.19.59-5.89,5.89Z"/>
      <path class="cls-1" d="M101.32,148.29l3.88.03c4.35,0,8.4-1.65,11.4-4.66l6.08-6.09-.3.15-5.87,5.87c-2.98,2.99-7.01,4.63-11.33,4.63l-3.69-.03-.18.09ZM105.2,148.64h-.16l-5.02-.04,1.41-.71h.04l3.72.03c4.24,0,8.19-1.61,11.11-4.54l5.92-5.92,2.05-1.03-7.45,7.46c-3.06,3.06-7.19,4.75-11.62,4.75Z"/>
      <path class="cls-1" d="M141.63,118.25l-.26.85,3.01-3.02c2.44-2.44,3.97-5.54,4.44-8.92h-.42c-.47,3.26-1.96,6.26-4.32,8.63l-2.46,2.46Z"/>
      <path class="cls-1" d="M141.77,118.33l-.06.21,2.57-2.58c2.36-2.37,3.87-5.35,4.37-8.65h-.1c-.5,3.27-2,6.23-4.35,8.58l-2.43,2.43ZM141.04,119.65l.48-1.51,2.46-2.46c2.33-2.33,3.81-5.29,4.28-8.54l.02-.13h.74l-.03.18c-.48,3.43-2.03,6.55-4.49,9.01l-3.46,3.46Z"/>
      <polygon class="cls-1" points="90.63 20.07 66.93 19.86 66.13 20.26 91.92 20.49 90.63 20.07"/>
      <path class="cls-1" d="M66.78,20.11l24.12.22-.29-.09-23.64-.22-.18.09ZM92.94,20.66l-27.46-.25,1.41-.71h.04l23.75.22,2.26.73Z"/>
      <path class="cls-1" d="M25.06,50.04l.26-.85-3.01,3.02c-2.84,2.85-4.45,6.58-4.58,10.59h.41c.14-3.91,1.7-7.54,4.47-10.3l2.46-2.46Z"/>
      <path class="cls-1" d="M17.88,62.65h.1c.18-3.88,1.77-7.52,4.51-10.26l2.43-2.43.06-.21-2.57,2.57c-2.75,2.76-4.36,6.42-4.53,10.32ZM18.28,62.96h-.73v-.16c.14-4.05,1.79-7.85,4.64-10.7l3.46-3.46-.48,1.51-2.46,2.46c-2.72,2.72-4.28,6.34-4.42,10.2v.15Z"/>
      <polygon class="cls-1" points="31.98 122.83 49.16 139.49 50.03 139.77 31.34 121.64 31.98 122.83"/>
      <path class="cls-1" d="M49.24,139.35l.19.06-17.47-16.94.14.26,17.13,16.62ZM50.63,140.13l-1.58-.53-17.21-16.7-1.13-2.09,19.91,19.32Z"/>
      <polygon class="cls-1" points="42.28 32.21 25.94 48.57 25.68 49.42 43.46 31.62 42.28 32.21"/>
      <path class="cls-1" d="M26.08,48.65l-.06.21,16.65-16.67-.29.15-16.3,16.31ZM25.35,49.97l.48-1.51,16.38-16.39,2.05-1.03-18.91,18.92Z"/>
      <path class="cls-1" d="M50.28,24.8c2.99-3,7.03-4.63,11.38-4.59l3.56.03.8-.4-4.37-.04c-4.45-.04-8.6,1.63-11.67,4.7l-6.77,6.77,1.18-.59,5.89-5.89Z"/>
      <path class="cls-1" d="M61.49,19.96c-4.35,0-8.4,1.65-11.4,4.66l-6.08,6.09.3-.15,5.87-5.87c2.99-2.99,7.01-4.63,11.33-4.63l3.68.03.18-.09-3.88-.03ZM42.42,31.86l7.45-7.46c3.06-3.06,7.19-4.75,11.62-4.75h.16l5.02.05-1.41.71h-.04l-3.72-.03c-4.24,0-8.19,1.61-11.11,4.54l-5.92,5.92-2.05,1.03Z"/>
      <polygon class="cls-1" points="134.71 45.46 117.53 28.8 116.66 28.52 135.35 46.65 134.71 45.46"/>
      <path class="cls-1" d="M117.26,28.88l17.47,16.94-.14-.26-17.13-16.62-.19-.06ZM135.98,47.47l-19.91-19.31,1.57.53,17.2,16.7,1.13,2.08Z"/>
      <path class="cls-1" d="M23.89,114.98l7.11,6.9-.64-1.19-6.19-6c-1.38-1.34-2.51-2.88-3.35-4.59-.47-.94-.85-1.93-1.12-2.95h-.42c.29,1.07.68,2.12,1.18,3.12.87,1.75,2.03,3.33,3.44,4.7"/>
      <path class="cls-1" d="M19.48,107.32c.28,1,.65,1.97,1.11,2.89.86,1.73,2.01,3.3,3.41,4.66l6.38,6.19-.14-.26-6.17-5.98c-1.39-1.35-2.53-2.91-3.38-4.63-.45-.91-.82-1.87-1.1-2.86h-.1ZM31.63,122.71l-7.85-7.61c-1.43-1.38-2.59-2.98-3.47-4.75-.5-1-.9-2.06-1.19-3.15l-.05-.2h.75l.03.12c.28,1.01.65,1.99,1.11,2.92.84,1.69,1.96,3.22,3.32,4.54l6.21,6.04,1.13,2.09Z"/>
      <path class="cls-1" d="M101.8,20.58c4.35.04,8.47,1.74,11.62,4.8l2.58,2.51.87.28-3.17-3.08c-3.23-3.13-7.46-4.88-11.91-4.92l-9.81-.09,1.29.42,8.54.08Z"/>
      <path class="cls-1" d="M116.09,27.75l.19.06-2.69-2.6c-3.2-3.1-7.39-4.83-11.81-4.87l-8.79-.08.3.1,8.51.08c4.39.04,8.55,1.76,11.73,4.84l2.56,2.48ZM117.47,28.52l-1.57-.53-2.58-2.51c-3.12-3.02-7.21-4.71-11.51-4.75l-8.58-.09-2.26-.73,10.83.1c4.5.04,8.76,1.81,12.02,4.96l3.65,3.55Z"/>
      <path class="cls-1" d="M142.8,53.31l-7.11-6.9.64,1.19,6.18,6c1.38,1.34,2.51,2.88,3.35,4.59.72,1.46,1.23,3.03,1.49,4.63h.42c-.27-1.65-.78-3.28-1.54-4.79-.87-1.75-2.03-3.33-3.44-4.71"/>
      <path class="cls-1" d="M147.49,62.65h.1c-.27-1.59-.77-3.13-1.49-4.57-.86-1.74-2.01-3.3-3.41-4.66l-6.38-6.18.14.26,6.17,5.98c1.39,1.35,2.53,2.91,3.39,4.63.71,1.43,1.21,2.96,1.48,4.54ZM147.96,62.96h-.73l-.02-.13c-.26-1.59-.76-3.13-1.48-4.58-.84-1.69-1.96-3.22-3.32-4.54l-6.21-6.04-1.13-2.09,7.85,7.61c1.43,1.38,2.6,2.98,3.47,4.75.76,1.52,1.28,3.15,1.55,4.84l.03.18Z"/>
      <path class="cls-3" d="M44.81,36.33c2.16-3.13,5.46-5.2,9.28-5.83l3.06-.51.71-.53-3.85.64c-3.94.65-7.32,2.78-9.55,6l-4.89,7.08,1.05-.79,4.17-6.05Z"/>
      <path class="cls-3" d="M57.25,29.72l-3.22.53c-3.89.64-7.25,2.75-9.44,5.93l-4.34,6.29.26-.2,4.16-6.03c2.18-3.16,5.52-5.26,9.39-5.9l3.02-.5.17-.13ZM38.9,43.88l5.43-7.87c2.25-3.25,5.67-5.41,9.65-6.07l4.49-.74-1.29.95-3.06.51c-3.79.63-7.05,2.67-9.18,5.77l-4.21,6.09-1.82,1.37Z"/>
      <path class="cls-3" d="M77.18,143.65c-3.83.63-7.73-.25-10.98-2.48l-2.6-1.79-.9-.13,3.28,2.25c3.35,2.3,7.35,3.21,11.29,2.55l8.66-1.43-1.34-.2-7.4,1.22Z"/>
      <path class="cls-3" d="M63.33,139.5l2.72,1.87c2.6,1.79,5.61,2.73,8.71,2.73.82,0,1.66-.07,2.47-.2l7.66-1.27-.32-.05-7.38,1.22c-.81.13-1.63.2-2.45.2-3.07,0-6.06-.94-8.64-2.71l-2.57-1.77-.2-.03ZM74.76,144.41c-3.16,0-6.23-.96-8.88-2.79l-3.83-2.63,1.64.26,2.6,1.79c2.53,1.74,5.46,2.66,8.46,2.66.8,0,1.61-.07,2.4-.2l7.43-1.23,2.36.34-9.65,1.59c-.83.14-1.68.21-2.52.21Z"/>
      <path class="cls-3" d="M36.08,120.48c-2.13-1.47-3.86-3.46-5.01-5.75-.57-1.14-.99-2.35-1.24-3.59l-.62-3.03-.57-.72.78,3.82c.26,1.28.69,2.52,1.27,3.7,1.17,2.36,2.96,4.41,5.15,5.92l7.36,5.05-.84-1.07-6.29-4.32Z"/>
      <path class="cls-3" d="M28.94,108l.65,3.17c.26,1.26.68,2.5,1.26,3.66,1.16,2.34,2.92,4.36,5.1,5.85l6.51,4.47-.19-.24-6.27-4.31c-2.16-1.48-3.9-3.49-5.06-5.81-.58-1.16-1-2.38-1.25-3.63l-.61-3-.14-.17ZM43.97,126.58l-8.21-5.64c-2.22-1.52-4.01-3.59-5.2-5.98-.59-1.19-1.02-2.44-1.29-3.74l-.91-4.46,1.01,1.3.62,3.03c.25,1.23.66,2.42,1.22,3.55,1.13,2.27,2.84,4.24,4.96,5.69l6.33,4.35,1.48,1.88Z"/>
      <path class="cls-3" d="M121.88,131.96c-2.16,3.13-5.46,5.2-9.28,5.83l-3.06.51-.71.53,3.85-.64c3.94-.65,7.33-2.78,9.55-6l4.89-7.08-1.05.79-4.17,6.05Z"/>
      <path class="cls-3" d="M109.6,138.45l-.17.13,3.22-.53c3.89-.64,7.25-2.75,9.44-5.94l4.34-6.29-.26.2-4.16,6.03c-2.19,3.17-5.52,5.26-9.39,5.9l-3.02.5ZM108.22,139.09l1.29-.95,3.06-.51c3.78-.62,7.05-2.67,9.18-5.77l4.21-6.09,1.82-1.37-5.43,7.87c-2.24,3.25-5.67,5.41-9.65,6.07l-4.49.74Z"/>
      <polygon class="cls-3" points="87.24 142.4 107.94 138.98 108.65 138.45 85.9 142.2 87.24 142.4"/>
      <path class="cls-3" d="M86.92,142.2l.32.05,20.64-3.41.17-.12-21.12,3.49ZM87.24,142.56l-2.36-.34,24.38-4.03-1.3.95-20.72,3.43Z"/>
      <polygon class="cls-3" points="44.34 126.64 61.93 138.72 62.83 138.85 43.5 125.57 44.34 126.64"/>
      <path class="cls-3" d="M61.99,138.57l.2.03-17.93-12.32.19.24,17.55,12.05ZM63.48,139.11l-1.63-.25-17.63-12.11-1.48-1.88,20.75,14.24Z"/>
      <polygon class="cls-3" points="127.86 124.03 139.5 107.16 138.99 107.16 126.8 124.82 127.86 124.03"/>
      <path class="cls-3" d="M139.07,107.32l-11.59,16.8.27-.2,11.46-16.6h-.13ZM126.13,125.53l12.78-18.52h.89l-11.85,17.15-1.82,1.37Z"/>
      <polygon class="cls-3" points="137.65 61.07 138.01 62.81 138.43 62.81 138.22 61.79 137.65 61.07"/>
      <polygon class="cls-3" points="138.62 62.96 137.88 62.96 137.36 60.46 138.37 61.76 138.62 62.96"/>
      <polygon class="cls-3" points="38.83 44.26 27.15 61.18 27.05 62.06 39.89 43.47 38.83 44.26"/>
      <path class="cls-3" d="M27.3,61.24l-.03.22,11.93-17.29-.27.2-11.64,16.87ZM26.83,62.67l.2-1.58,11.71-16.96,1.82-1.37-13.74,19.91Z"/>
      <path class="cls-3" d="M130.61,47.81c2.13,1.47,3.87,3.45,5.01,5.75.57,1.15.98,2.35,1.24,3.6l.62,3.03.57.72-.78-3.82c-.26-1.28-.69-2.52-1.27-3.7-1.17-2.36-2.95-4.41-5.15-5.92l-7.36-5.05.84,1.07,6.29,4.32Z"/>
      <path class="cls-3" d="M137.62,60.12l.13.17-.65-3.17c-.26-1.27-.68-2.5-1.26-3.66-1.16-2.34-2.92-4.36-5.1-5.86l-6.51-4.47.19.24,6.27,4.31c2.16,1.48,3.91,3.49,5.06,5.81.57,1.16,1,2.38,1.25,3.63l.61,2.99ZM138.32,61.53l-1.01-1.31-.62-3.03c-.25-1.23-.66-2.42-1.22-3.56-1.13-2.27-2.84-4.24-4.96-5.69l-6.33-4.36-1.48-1.87,8.21,5.64c2.22,1.52,4.02,3.59,5.2,5.98.59,1.19,1.02,2.44,1.29,3.74l.91,4.47Z"/>
      <polygon class="cls-3" points="29.03 107.16 28.99 107.16 29.04 107.22 29.03 107.16"/>
      <polygon class="cls-3" points="29.34 107.85 28.67 107.01 29.12 107.01 29.19 107.19 29.34 107.85"/>
      <polygon class="cls-3" points="26.65 61.91 26.03 62.81 26.54 62.81 26.55 62.79 26.65 61.91"/>
      <polygon class="cls-3" points="26.54 62.96 25.73 62.96 26.88 61.3 26.68 62.88 26.63 62.95 26.54 62.96"/>
      <path class="cls-3" d="M89.51,24.64c3.83-.63,7.73.25,10.98,2.48l2.6,1.79.9.13-3.28-2.25c-3.35-2.3-7.36-3.2-11.29-2.55l-8.66,1.43,1.34.2,7.4-1.22Z"/>
      <path class="cls-3" d="M103.16,28.77l.2.03-2.72-1.87c-2.6-1.79-5.61-2.73-8.71-2.73-.82,0-1.65.07-2.47.2l-7.66,1.27.32.05,7.38-1.22c.81-.13,1.63-.2,2.45-.2,3.07,0,6.06.94,8.64,2.71l2.57,1.77ZM104.64,29.3l-1.63-.25-2.6-1.79c-2.53-1.74-5.46-2.66-8.46-2.66-.8,0-1.61.07-2.4.2l-7.42,1.23-2.36-.34,9.65-1.59c.83-.14,1.68-.21,2.52-.21,3.16,0,6.23.96,8.89,2.79l3.83,2.63Z"/>
      <polygon class="cls-3" points="79.45 25.89 58.75 29.31 58.04 29.85 80.79 26.09 79.45 25.89"/>
      <path class="cls-3" d="M58.82,29.46l-.17.13,21.12-3.49-.31-.05-20.64,3.41ZM57.44,30.11l1.29-.95,20.72-3.43,2.36.34-24.38,4.03Z"/>
      <polygon class="cls-3" points="122.35 41.65 104.76 29.57 103.86 29.44 123.19 42.72 122.35 41.65"/>
      <path class="cls-3" d="M104.5,29.69l17.93,12.32-.19-.24-17.55-12.05-.2-.03ZM123.95,43.43l-20.74-14.25,1.63.26,17.63,12.12,1.48,1.87Z"/>
      <polygon class="cls-5" points="55.84 128.12 73.06 136.09 73.97 136.06 54.83 127.2 55.84 128.12"/>
      <path class="cls-5" d="M55.93,127.98l17.17,7.95h.2s-17.59-8.15-17.59-8.15l.23.21ZM73.03,136.25l-.03-.02-17.26-8-1.78-1.61,20.68,9.58-1.61.05Z"/>
      <polygon class="cls-5" points="128.97 112.75 131.48 107.16 131.02 107.16 128.07 113.72 128.97 112.75"/>
      <path class="cls-5" d="M131.12,107.32l-2.52,5.59.22-.24,2.4-5.34h-.11ZM127.53,114.53l3.39-7.52h.8l-2.64,5.85-1.54,1.67Z"/>
      <polygon class="cls-5" points="96.15 135.47 113.65 129.3 114.25 128.65 94.81 135.5 96.15 135.47"/>
      <path class="cls-5" d="M113.7,129.01l-17.9,6.31h.32s17.43-6.15,17.43-6.15l.15-.16ZM93.82,135.69l20.97-7.4-1.09,1.16-17.54,6.18-2.34.06Z"/>
      <polygon class="cls-5" points="127.51 55.22 130.49 62.81 130.93 62.81 128.19 55.83 127.51 55.22"/>
      <path class="cls-5" d="M130.6,62.65h.1l-2.65-6.72-.16-.14,2.7,6.87ZM131.16,62.96h-.78l-3.27-8.31,1.22,1.12,2.83,7.19Z"/>
      <path class="cls-5" d="M119.21,44.49c2.82,1.31,5.14,3.55,6.51,6.31.17.34.32.69.46,1.05l1,2.53.68.62-1.29-3.28c-.14-.36-.3-.73-.48-1.08-1.42-2.85-3.8-5.16-6.71-6.51l-7.28-3.37,1.01.91,6.11,2.83Z"/>
      <path class="cls-5" d="M127.31,54.28l.15.14-1.05-2.66c-.14-.36-.3-.72-.47-1.07-1.4-2.82-3.76-5.1-6.64-6.44l-6.34-2.94.22.2,6.09,2.82c2.86,1.32,5.2,3.59,6.58,6.39.17.34.33.7.47,1.06l.99,2.5ZM128.25,55.56l-1.22-1.12-1-2.53c-.14-.35-.29-.7-.46-1.04-1.36-2.73-3.64-4.95-6.44-6.24l-6.15-2.85-1.78-1.61,8.23,3.81c2.95,1.37,5.36,3.7,6.79,6.58.18.36.34.73.49,1.09l1.54,3.9Z"/>
      <polygon class="cls-5" points="37.72 55.54 34.45 62.81 34.91 62.81 38.61 54.58 37.72 55.54"/>
      <path class="cls-5" d="M34.69,62.65h.11l3.27-7.26-.22.24-3.16,7.02ZM35.01,62.96h-.8l3.4-7.53,1.54-1.67-4.14,9.2Z"/>
      <polygon class="cls-5" points="70.53 32.83 53.04 38.99 52.44 39.64 71.88 32.79 70.53 32.83"/>
      <path class="cls-5" d="M53.13,39.13l-.14.16,17.9-6.31h-.32s-17.43,6.15-17.43,6.15ZM51.9,40l1.09-1.16,17.54-6.18,2.34-.06-20.98,7.4Z"/>
      <path class="cls-5" d="M87.35,138.13c-3.27,1.15-6.84.97-10.05-.52l-2.5-1.16-.91.03,3.24,1.5c3.32,1.54,7,1.73,10.37.54l7.4-2.61-1.34.04-6.21,2.19Z"/>
      <path class="cls-5" d="M74.56,136.62l2.63,1.22c1.86.86,3.81,1.3,5.8,1.3,1.52,0,3.01-.26,4.44-.76l6.46-2.28h-.32s-6.18,2.19-6.18,2.19c-1.42.5-2.91.76-4.41.76-1.98,0-3.92-.43-5.76-1.28l-2.46-1.14h-.2ZM83,139.44c-2.04,0-4.04-.45-5.94-1.32l-3.85-1.78,1.61-.04.03.02,2.5,1.16c1.8.83,3.69,1.26,5.63,1.26,1.47,0,2.92-.25,4.31-.74l6.25-2.2,2.34-.06-8.34,2.94c-1.47.52-3,.78-4.55.78Z"/>
      <polygon class="cls-5" points="110.85 40.17 93.63 32.2 92.72 32.23 111.86 41.09 110.85 40.17"/>
      <path class="cls-5" d="M93.4,32.36l17.59,8.14-.22-.2-17.17-7.95h-.2ZM112.74,41.66l-20.69-9.58,1.61-.04.03.02,17.26,8,1.78,1.61Z"/>
      <polygon class="cls-5" points="39.18 113.07 36.86 107.16 36.42 107.16 38.5 112.46 39.18 113.07"/>
      <path class="cls-5" d="M38.63,112.36l.16.14-2.04-5.19h-.1l1.99,5.04ZM39.57,113.63l-1.22-1.12-2.17-5.51h.77l2.61,6.63Z"/>
      <path class="cls-5" d="M41.82,47.46c1.4-3.12,3.97-5.47,7.24-6.62l2.54-.89.6-.65-3.29,1.16c-3.37,1.19-6.02,3.61-7.47,6.83l-3.18,7.06.89-.96,2.67-5.92Z"/>
      <path class="cls-5" d="M51.65,39.65l-2.69.95c-3.33,1.17-5.95,3.57-7.38,6.75l-2.78,6.19.22-.24,2.66-5.9c1.42-3.16,4.03-5.54,7.33-6.7l2.5-.88.14-.15ZM37.73,55.16l3.57-7.94c1.47-3.25,4.15-5.71,7.56-6.91l3.89-1.37-1.09,1.16-2.54.89c-3.23,1.14-5.76,3.46-7.15,6.54l-2.69,5.96-1.54,1.67Z"/>
      <path class="cls-5" d="M79.34,30.16c3.27-1.15,6.84-.97,10.05.52l2.5,1.16.91-.03-3.24-1.5c-3.32-1.54-7-1.73-10.37-.54l-7.4,2.61,1.34-.04,6.2-2.19Z"/>
      <path class="cls-5" d="M83.68,29.16c-1.52,0-3.01.26-4.44.76l-6.46,2.28h.32s6.18-2.19,6.18-2.19c1.42-.5,2.91-.76,4.41-.76,1.98,0,3.92.43,5.76,1.28l2.46,1.14h.2s-2.63-1.23-2.63-1.23c-1.86-.86-3.81-1.3-5.81-1.3ZM70.8,32.57l8.34-2.94c1.47-.52,3-.78,4.55-.78,2.04,0,4.04.45,5.94,1.32l3.84,1.78-1.61.04-.03-.02-2.5-1.16c-1.8-.83-3.69-1.25-5.63-1.25-1.47,0-2.92.25-4.31.74l-6.25,2.2-2.34.06Z"/>
      <path class="cls-5" d="M47.49,123.8c-2.83-1.31-5.14-3.55-6.51-6.31-.17-.34-.33-.69-.47-1.05l-1-2.53-.68-.62,1.29,3.28c.14.36.31.73.48,1.08,1.42,2.85,3.8,5.17,6.72,6.51l7.28,3.37-1.01-.91-6.11-2.83Z"/>
      <path class="cls-5" d="M39.22,113.86l1.05,2.66c.15.37.31.73.47,1.07,1.4,2.82,3.76,5.11,6.64,6.44l6.34,2.94-.23-.2-6.09-2.82c-2.86-1.32-5.2-3.59-6.58-6.39-.17-.34-.33-.7-.47-1.06l-.98-2.5-.16-.14ZM55.48,128.12l-8.22-3.81c-2.94-1.36-5.36-3.7-6.79-6.59-.17-.35-.34-.71-.49-1.09l-1.54-3.9,1.22,1.12,1,2.53c.14.35.29.7.46,1.04,1.36,2.73,3.64,4.95,6.44,6.24l6.15,2.85,1.78,1.61Z"/>
      <path class="cls-5" d="M124.87,120.83c-1.4,3.12-3.97,5.47-7.24,6.62l-2.54.89-.6.65,3.29-1.16c3.37-1.19,6.02-3.61,7.47-6.83l3.18-7.06-.89.96-2.66,5.92Z"/>
      <path class="cls-5" d="M115.18,128.48l-.15.16,2.69-.95c3.33-1.17,5.95-3.57,7.38-6.75l2.78-6.19-.23.24-2.65,5.9c-1.42,3.16-4.02,5.54-7.33,6.7l-2.5.88ZM113.94,129.36l1.1-1.16,2.54-.89c3.23-1.14,5.76-3.46,7.15-6.54l2.69-5.96,1.54-1.66-3.57,7.93c-1.47,3.26-4.15,5.71-7.56,6.92l-3.89,1.37Z"/>
      <polygon class="cls-2" points="66.22 127.64 82.45 132.04 83.33 131.86 65.07 126.91 66.22 127.64"/>
      <path class="cls-2" d="M66.28,127.5l16.17,4.38.2-.04-16.63-4.51.26.16ZM82.44,132.21l-16.31-4.43-2.02-1.28,19.89,5.4-1.57.32Z"/>
      <path class="cls-2" d="M58.06,125.01c-3.06-.83-5.66-2.78-7.3-5.48l-1.23-2.03-.77-.49,1.66,2.72c1.7,2.8,4.39,4.81,7.56,5.67l6.95,1.89-1.15-.73-5.7-1.54Z"/>
      <path class="cls-2" d="M49.23,117.5l1.31,2.15c1.68,2.76,4.33,4.75,7.46,5.6l5.95,1.61-.26-.16-5.68-1.54c-3.1-.84-5.73-2.81-7.39-5.55l-1.22-2-.18-.11ZM65.86,127.71l-7.94-2.16c-3.21-.87-5.93-2.91-7.65-5.74l-2.01-3.3,1.39.91,1.23,2.03c1.62,2.67,4.18,4.59,7.21,5.41l5.74,1.56,2.02,1.28Z"/>
      <path class="cls-2" d="M120.42,117.47l-2.02,1.15-.47.75,2.71-1.54c2.78-1.58,4.74-4.15,5.51-7.25l.84-3.41h-.43l-.82,3.3c-.74,2.99-2.63,5.48-5.32,7"/>
      <path class="cls-2" d="M118.51,118.73l-.12.18,2.16-1.23c2.74-1.56,4.67-4.1,5.43-7.15l.79-3.21h-.11l-.78,3.18c-.75,3.03-2.66,5.56-5.39,7.11l-1.99,1.12ZM117.45,119.81l.87-1.33,2.02-1.15c2.65-1.51,4.51-3.96,5.24-6.91l.85-3.42h.75l-.89,3.6c-.78,3.14-2.76,5.75-5.58,7.35l-3.26,1.85Z"/>
      <path class="cls-2" d="M71.25,36.64c2.69-1.53,5.86-1.91,8.92-1.08l2.3.62.88-.18-3.08-.84c-3.17-.86-6.45-.46-9.24,1.12l-6.1,3.46,1.31-.27,5.01-2.84Z"/>
      <path class="cls-2" d="M76.97,34.88c-2.05,0-4.08.53-5.86,1.54l-5.24,2.98.32-.07,4.98-2.83c2.69-1.53,5.97-1.93,9.04-1.09l2.26.61.2-.04-2.45-.66c-1.07-.29-2.17-.44-3.26-.44ZM64.01,40.1l6.96-3.95c2.79-1.58,6.18-1.99,9.36-1.13l3.72,1.01-1.57.32-2.33-.63c-2.99-.81-6.18-.42-8.8,1.07l-5.05,2.86-2.27.46Z"/>
      <polygon class="cls-2" points="49.05 116.72 43.23 107.16 42.76 107.16 48.27 116.23 49.05 116.72"/>
      <path class="cls-2" d="M48.39,116.11l.18.11-5.42-8.91h-.11l5.35,8.8ZM49.53,117.22l-1.39-.91-5.66-9.31h.84l6.21,10.21Z"/>
      <path class="cls-2" d="M108.63,43.28c3.07.83,5.66,2.78,7.3,5.48l1.23,2.03.77.49-1.66-2.72c-1.7-2.8-4.39-4.81-7.56-5.67l-6.95-1.89,1.15.73,5.7,1.54Z"/>
      <path class="cls-2" d="M117.29,50.68l.18.11-1.31-2.14c-1.68-2.76-4.33-4.75-7.47-5.6l-5.95-1.62.26.16,5.68,1.54c3.1.84,5.73,2.81,7.4,5.55l1.22,2ZM118.43,51.78l-1.39-.91-1.23-2.03c-1.62-2.67-4.18-4.59-7.21-5.41l-5.74-1.56-2.02-1.28,7.94,2.16c3.21.87,5.93,2.91,7.65,5.74l2,3.3Z"/>
      <polygon class="cls-2" points="102.9 127.89 117.15 119.8 117.62 119.05 101.59 128.15 102.9 127.89"/>
      <path class="cls-2" d="M117.15,119.5l-14.63,8.3.32-.07,14.19-8.05.12-.18ZM100.66,128.51l17.43-9.9-.87,1.33-14.29,8.1-2.28.46Z"/>
      <path class="cls-2" d="M46.27,50.82l2.02-1.15.47-.75-2.71,1.54c-2.78,1.58-4.74,4.16-5.5,7.25l-1.26,5.09h.43l1.23-4.98c.74-2.99,2.63-5.48,5.32-7"/>
      <path class="cls-2" d="M39.5,62.65h.11l1.2-4.86c.75-3.03,2.66-5.56,5.39-7.11l1.99-1.13.12-.18-2.16,1.23c-2.75,1.56-4.67,4.1-5.43,7.15l-1.21,4.89ZM39.85,62.96h-.75l1.31-5.28c.78-3.14,2.76-5.75,5.58-7.35l3.26-1.85-.87,1.33-2.02,1.15c-2.65,1.51-4.51,3.96-5.24,6.91l-1.26,5.1Z"/>
      <polygon class="cls-2" points="117.64 51.57 124.48 62.81 124.95 62.81 118.42 52.06 117.64 51.57"/>
      <path class="cls-2" d="M124.57,62.65h.11l-6.37-10.48-.18-.11,6.44,10.59ZM125.23,62.96h-.84l-7.23-11.89,1.39.9,6.68,10.98Z"/>
      <polygon class="cls-2" points="100.47 40.65 84.24 36.25 83.36 36.43 101.62 41.38 100.47 40.65"/>
      <path class="cls-2" d="M84.04,36.45l16.63,4.51-.26-.16-16.17-4.38-.2.04ZM102.58,41.8l-19.9-5.4,1.57-.32,16.31,4.43,2.02,1.28Z"/>
      <polygon class="cls-2" points="63.79 40.4 49.54 48.49 49.07 49.24 65.1 40.14 63.79 40.4"/>
      <path class="cls-2" d="M49.66,48.61l-.12.18,14.63-8.3-.32.07-14.19,8.05ZM48.6,49.68l.87-1.33,14.29-8.1,2.27-.46-17.43,9.9Z"/>
      <path class="cls-2" d="M95.44,131.65c-2.69,1.53-5.86,1.91-8.92,1.08l-2.3-.62-.88.18,3.09.84c3.17.86,6.45.46,9.24-1.12l6.1-3.47-1.31.27-5.01,2.85Z"/>
      <path class="cls-2" d="M84.01,132.31l2.45.66c3.1.84,6.4.44,9.12-1.1l5.24-2.98-.32.07-4.98,2.83c-2.7,1.53-5.97,1.93-9.04,1.09l-2.27-.61-.2.04ZM89.72,133.72c-1.12,0-2.24-.15-3.35-.45l-3.73-1.01,1.57-.32,2.34.63c2.99.81,6.18.43,8.8-1.07l5.05-2.86,2.28-.46-6.96,3.95c-1.82,1.04-3.9,1.58-6.01,1.58Z"/>
      <path class="cls-5" d="M65.16,43.66c2.12-1.77,4.85-2.6,7.67-2.33l2.04.19.83-.33-2.85-.27c-2.94-.28-5.77.58-7.97,2.42l-4.82,4.02,1.23-.49,3.86-3.22Z"/>
      <path class="cls-5" d="M71.78,41.03c-2.53,0-4.88.84-6.79,2.44l-4.07,3.4.31-.12,3.84-3.21c1.9-1.58,4.22-2.42,6.73-2.42.35,0,.71.02,1.06.05l2,.19.19-.07-2.2-.21c-.36-.03-.72-.05-1.07-.05ZM59.22,47.88l5.57-4.65c1.97-1.64,4.38-2.51,6.99-2.51.36,0,.73.02,1.1.05l3.5.33-1.48.58-2.08-.2c-.34-.03-.69-.05-1.03-.05-2.43,0-4.69.81-6.53,2.35l-3.9,3.25-2.14.84Z"/>
      <path class="cls-5" d="M45.41,60.16l1.53-1.28.33-.82-2.14,1.79c-1.01.84-1.83,1.85-2.45,2.96h.48c.58-.99,1.33-1.89,2.24-2.65"/>
      <path class="cls-5" d="M42.96,62.65h.12c.59-.99,1.34-1.87,2.23-2.61l1.5-1.25.08-.2-1.66,1.38c-.91.77-1.68,1.67-2.27,2.69ZM43.26,62.96h-.83l.13-.23c.63-1.15,1.47-2.16,2.48-3.01l2.62-2.19-.61,1.47-1.53,1.28c-.89.74-1.63,1.62-2.21,2.61l-.04.08Z"/>
      <polygon class="cls-5" points="59.06 48.22 47.96 57.49 47.62 58.31 60.29 47.73 59.06 48.22"/>
      <path class="cls-5" d="M48.09,57.58l-.08.2,11.44-9.55-.31.12-11.05,9.23ZM47.24,58.83l.61-1.47,11.15-9.29,2.14-.85-13.9,11.61Z"/>
      <path class="cls-5" d="M99.13,43.83c2.82.27,5.41,1.6,7.29,3.75l1.35,1.55.85.36-1.89-2.17c-1.95-2.24-4.64-3.62-7.57-3.9l-6.42-.61,1.25.53,5.14.49Z"/>
      <path class="cls-5" d="M107.87,49.01l.19.08-1.44-1.66c-1.92-2.21-4.57-3.57-7.47-3.85l-5.4-.51.29.12,5.12.49c2.86.27,5.49,1.62,7.39,3.81l1.33,1.52ZM109.18,49.9l-1.53-.66-1.35-1.55c-1.85-2.12-4.4-3.44-7.19-3.7l-5.19-.5-2.2-.93,7.44.71c2.98.28,5.7,1.69,7.68,3.95l2.33,2.68Z"/>
      <polygon class="cls-5" points="58.32 118.46 48.48 107.16 47.94 107.16 57.47 118.1 58.32 118.46"/>
      <path class="cls-5" d="M57.56,117.97l.19.08-9.34-10.73h-.12l9.27,10.65ZM58.88,118.86l-1.53-.66-9.75-11.2h.95l.05.05,10.28,11.81Z"/>
      <path class="cls-5" d="M101.53,124.62c-2.12,1.77-4.85,2.6-7.67,2.33l-2.04-.19-.83.33,2.85.27c2.94.28,5.77-.58,7.97-2.42l4.82-4.03-1.24.49-3.86,3.22Z"/>
      <path class="cls-5" d="M91.65,127l2.2.21c.35.03.71.05,1.07.05,2.53,0,4.88-.84,6.79-2.44l4.08-3.4-.31.12-3.84,3.21c-1.89,1.58-4.22,2.42-6.73,2.42-.35,0-.71-.02-1.06-.05l-2-.19-.19.08ZM94.91,127.57c-.36,0-.73-.02-1.1-.05l-3.5-.33,1.47-.58,2.08.2c.34.03.69.05,1.03.05,2.43,0,4.69-.81,6.53-2.34l3.9-3.25,2.14-.84-5.57,4.65c-1.97,1.64-4.39,2.51-7,2.51Z"/>
      <path class="cls-5" d="M121.28,108.13l-1.53,1.28-.33.82,2.14-1.79c.47-.39.9-.82,1.29-1.28h-.55c-.31.34-.65.67-1.01.97"/>
      <path class="cls-5" d="M119.88,109.51l-.08.21,1.66-1.39c.37-.31.72-.65,1.04-1.01h-.14c-.31.34-.64.65-.98.93l-1.5,1.25ZM119.04,110.76l.61-1.46,1.53-1.28c.34-.29.68-.61.99-.96l.05-.05h.96l-.22.26c-.4.47-.84.91-1.31,1.3l-2.62,2.19Z"/>
      <path class="cls-5" d="M67.56,124.46c-2.83-.27-5.42-1.6-7.29-3.75l-1.35-1.55-.85-.36,1.89,2.17c1.95,2.24,4.64,3.62,7.57,3.9l6.42.61-1.25-.53-5.14-.49Z"/>
      <path class="cls-5" d="M58.63,119.2l1.45,1.66c1.92,2.21,4.57,3.57,7.47,3.85l5.4.51-.29-.12-5.12-.49c-2.87-.27-5.49-1.63-7.39-3.81l-1.33-1.52-.19-.08ZM74.95,125.73l-7.44-.71c-2.98-.28-5.7-1.69-7.68-3.95l-2.33-2.68,1.53.66,1.35,1.55c1.85,2.12,4.4,3.44,7.19,3.7l5.19.5,2.2.93Z"/>
      <polygon class="cls-5" points="120.06 62.81 120.21 62.81 119.91 62.47 120.06 62.81"/>
      <polygon class="cls-5" points="120.55 62.96 119.95 62.96 119.36 61.6 120.55 62.96"/>
      <polygon class="cls-5" points="119.02 61.44 109.22 50.19 108.38 49.83 119.56 62.68 119.02 61.44"/>
      <path class="cls-5" d="M108.94,50.24l10.06,11.56-.12-.27-9.76-11.21-.19-.08ZM120.11,63.55l-12.29-14.13,1.53.66,9.82,11.3.95,2.17Z"/>
      <polygon class="cls-5" points="75.3 125.6 90.07 127.01 90.9 126.68 74.04 125.07 75.3 125.6"/>
      <path class="cls-5" d="M75.33,125.45l14.72,1.4.19-.07-15.19-1.44.29.12ZM90.1,127.17h-.04s-14.82-1.42-14.82-1.42l-2.2-.93,18.54,1.76-1.47.58Z"/>
      <polygon class="cls-5" points="91.4 42.69 76.62 41.28 75.79 41.61 92.65 43.22 91.4 42.69"/>
      <path class="cls-5" d="M76.45,41.52l15.19,1.44-.28-.12-14.72-1.4-.19.08ZM93.66,43.47l-18.54-1.76,1.48-.58h.04s14.82,1.42,14.82,1.42l2.2.92Z"/>
      <polygon class="cls-5" points="107.63 120.07 118.73 110.8 119.07 109.98 106.4 120.56 107.63 120.07"/>
      <path class="cls-5" d="M118.69,110.5l-11.44,9.55.31-.12,11.05-9.23.08-.2ZM105.55,121.06l13.9-11.6-.61,1.46-11.14,9.29-2.14.84Z"/>
      <polygon class="cls-7" points="110.55 112.35 114.87 107.16 114.33 107.16 109.42 113.05 110.55 112.35"/>
      <path class="cls-7" d="M114.4,107.32l-4.24,5.09.28-.18,4.09-4.92h-.14ZM108.68,113.69l5.57-6.69h.95l-4.58,5.48-1.94,1.2Z"/>
      <path class="cls-7" d="M75.84,122.5c-2.53.19-5.01-.59-7-2.22l-1.37-1.12-.89-.21,2,1.64c2.07,1.7,4.67,2.52,7.31,2.32l5.75-.44-1.32-.31-4.48.35Z"/>
      <path class="cls-7" d="M67.19,119.26l1.48,1.21c2.03,1.66,4.62,2.48,7.2,2.28l4.73-.36-.3-.07-4.45.34c-2.54.19-5.11-.62-7.11-2.26l-1.34-1.1-.2-.05ZM75.09,123.09c-2.39,0-4.74-.85-6.61-2.38l-2.53-2.07,1.61.39,1.37,1.12c1.94,1.59,4.42,2.38,6.89,2.19l4.5-.35,2.33.54-6.76.52c-.27.02-.54.03-.8.03Z"/>
      <polygon class="cls-7" points="82.97 122.36 96 121.35 96.75 120.89 81.65 122.05 82.97 122.36"/>
      <path class="cls-7" d="M82.67,122.13l.31.07,12.97-1,.18-.11-13.45,1.04ZM82.95,122.52l-2.33-.54,16.76-1.3-1.38.83-13.05,1.01Z"/>
      <path class="cls-7" d="M105.77,117.43c-1.58,1.9-3.85,3.06-6.38,3.25l-1.74.13-.76.47,2.55-.2c2.64-.2,5-1.41,6.65-3.4l3.61-4.33-1.12.69-2.81,3.37Z"/>
      <path class="cls-7" d="M97.71,120.97l-.18.11,1.9-.15c2.59-.2,4.92-1.39,6.55-3.34l2.99-3.59-.28.18-2.79,3.35c-1.61,1.94-3.92,3.11-6.48,3.31l-1.7.13ZM96.27,121.49l1.37-.83,1.74-.13c2.48-.19,4.71-1.33,6.27-3.2l2.84-3.4,1.94-1.2-4.22,5.07c-1.68,2.02-4.08,3.25-6.76,3.45l-3.19.25Z"/>
      <polygon class="cls-7" points="55.61 109.98 65.86 118.37 66.75 118.58 54.87 108.85 55.61 109.98"/>
      <path class="cls-7" d="M65.93,118.23l.2.05-10.57-8.65.16.25,10.2,8.35ZM67.37,118.88l-1.61-.39-10.28-8.42-1.31-1.99,13.21,10.81Z"/>
      <polygon class="cls-7" points="112.87 60.3 115.94 62.81 116.57 62.81 112.13 59.17 112.87 60.3"/>
      <path class="cls-7" d="M115.99,62.65h.14l-3.3-2.7.16.25,3,2.46ZM117.01,62.96h-1.13l-3.13-2.58-1.31-1.99,5.58,4.56Z"/>
      <polygon class="cls-7" points="83.72 45.93 70.69 46.94 69.94 47.41 85.04 46.24 83.72 45.93"/>
      <path class="cls-7" d="M70.74,47.09l-.18.11,13.45-1.04-.3-.07-12.97,1ZM69.3,47.61l1.38-.83,13.05-1.01,2.33.54-16.76,1.29Z"/>
      <path class="cls-7" d="M60.91,50.86c1.58-1.9,3.85-3.06,6.38-3.25l1.74-.13.76-.47-2.55.2c-2.64.2-5,1.41-6.65,3.4l-3.61,4.33,1.12-.69,2.81-3.37Z"/>
      <path class="cls-7" d="M69.16,47.21l-1.9.15c-2.6.2-4.92,1.39-6.55,3.34l-2.99,3.59.28-.18,2.79-3.35c1.61-1.94,3.92-3.11,6.48-3.31l1.7-.13.17-.11ZM56.25,55.57l4.22-5.07c1.68-2.02,4.08-3.24,6.76-3.45l3.19-.25-1.38.83-1.74.13c-2.49.19-4.71,1.33-6.27,3.2l-2.85,3.4-1.94,1.2Z"/>
      <polygon class="cls-7" points="56.14 55.94 50.42 62.81 50.97 62.81 57.27 55.24 56.14 55.94"/>
      <path class="cls-7" d="M50.76,62.65h.14l5.64-6.77-.28.17-5.49,6.6ZM51.04,62.96h-.95l5.97-7.16,1.95-1.2-6.97,8.36Z"/>
      <path class="cls-7" d="M90.85,45.79c2.53-.2,5.01.59,7,2.22l1.37,1.12.89.21-2-1.64c-2.07-1.7-4.67-2.52-7.31-2.32l-5.74.45,1.32.31,4.47-.35Z"/>
      <path class="cls-7" d="M99.3,48.99l.2.05-1.48-1.21c-2.03-1.66-4.62-2.48-7.19-2.28l-4.73.36.31.07,4.45-.34c2.54-.2,5.11.62,7.11,2.26l1.34,1.1ZM100.74,49.65l-1.61-.39-1.37-1.12c-1.94-1.59-4.43-2.38-6.89-2.19l-4.5.35-2.33-.54,6.76-.52c2.65-.21,5.33.64,7.42,2.35l2.52,2.07Z"/>
      <polygon class="cls-7" points="53.81 107.99 52.8 107.16 52.17 107.16 54.56 109.12 53.81 107.99"/>
      <path class="cls-7" d="M52.61,107.32l1.25,1.03-.16-.25-.95-.78h-.14ZM55.26,109.89l-3.53-2.89h1.13l1.08.9,1.31,1.99Z"/>
      <polygon class="cls-7" points="111.08 58.31 100.83 49.92 99.94 49.71 111.82 59.44 111.08 58.31"/>
      <path class="cls-7" d="M100.56,50.02l10.56,8.65-.16-.25-10.2-8.35-.2-.04ZM112.52,60.21l-13.2-10.8,1.61.39,10.28,8.42,1.31,1.99Z"/>
      <path class="cls-5" d="M61.94,110.86l-.93-.99-3.45-1.96c-.39-.22-.76-.47-1.11-.75h-.63c.47.41.99.78,1.54,1.1l4.57,2.6Z"/>
      <path class="cls-5" d="M56.26,107.32c.38.3.77.57,1.19.81l3.67,2.09-.2-.22-3.43-1.95c-.38-.22-.75-.46-1.09-.73h-.14ZM62.76,111.51l-5.47-3.12c-.55-.31-1.08-.69-1.57-1.12l-.31-.27h1.1l.04.03c.34.27.71.51,1.09.73l3.49,1.99,1.63,1.74Z"/>
      <polygon class="cls-5" points="55.35 62.81 55.57 62.81 55.8 62.4 55.35 62.81"/>
      <polygon class="cls-5" points="55.66 62.96 54.94 62.96 56.41 61.64 55.66 62.96"/>
      <polygon class="cls-5" points="77.48 50.03 66.37 52.88 65.71 53.47 78.82 50.1 77.48 50.03"/>
      <path class="cls-5" d="M66.44,53.02l-.16.14,11.52-2.96-.32-.02-11.05,2.83ZM65.13,53.78l1.2-1.05,11.13-2.86,2.37.14-14.7,3.77Z"/>
      <polygon class="cls-5" points="103.57 56.76 93.4 50.96 92.49 50.91 104.49 57.75 103.57 56.76"/>
      <path class="cls-5" d="M93.15,51.11l10.52,5.99-.2-.22-10.12-5.76h-.2ZM105.31,58.39l-13.48-7.68,1.65.11,10.21,5.82,1.63,1.74Z"/>
      <path class="cls-5" d="M83.88,48.81c2.19-.56,4.5-.24,6.51.9l1.31.75.91.05-2.02-1.15c-2.1-1.2-4.53-1.53-6.82-.94l-4.99,1.28,1.34.08,3.76-.97Z"/>
      <path class="cls-5" d="M91.74,50.3h.2s-1.43-.81-1.43-.81c-2.05-1.16-4.47-1.5-6.7-.93l-4.02,1.03.32.02,3.74-.96c2.21-.57,4.61-.23,6.62.92l1.28.73ZM93.26,50.71l-1.65-.11-1.31-.75c-1.95-1.11-4.26-1.43-6.39-.88l-3.78.97-2.37-.14,5.96-1.53c2.32-.59,4.82-.24,6.94.96l2.6,1.48Z"/>
      <path class="cls-5" d="M58.32,57.93c1.09-1.94,2.9-3.31,5.09-3.87l1.43-.37.66-.59-2.2.57c-2.3.59-4.19,2.03-5.34,4.06l-2.49,4.41.97-.88,1.88-3.32Z"/>
      <path class="cls-5" d="M64.92,53.41l-1.59.41c-2.26.58-4.12,1.99-5.24,3.99l-2.01,3.57.24-.22,1.86-3.3c1.11-1.97,2.96-3.38,5.19-3.95l1.39-.36.15-.14ZM54.86,62.9l2.96-5.25c1.17-2.07,3.1-3.54,5.43-4.14l2.82-.73-1.19,1.06-1.43.37c-2.15.55-3.92,1.9-4.99,3.8l-1.91,3.36-1.69,1.52Z"/>
      <polygon class="cls-5" points="63.12 111.54 73.29 117.33 74.2 117.38 62.2 110.54 63.12 111.54"/>
      <path class="cls-5" d="M73.34,117.17h.2s-10.52-5.98-10.52-5.98l.2.22,10.12,5.76ZM74.86,117.58l-1.65-.11-10.21-5.82-1.63-1.75,13.48,7.68Z"/>
      <path class="cls-5" d="M82.81,119.48c-2.19.56-4.5.24-6.51-.9l-1.31-.75-.91-.05,2.02,1.15c2.1,1.2,4.52,1.53,6.82.94l4.99-1.28-1.35-.08-3.76.97Z"/>
      <path class="cls-5" d="M74.75,117.98l1.44.82c2.04,1.16,4.47,1.5,6.7.93l4.02-1.03-.32-.02-3.74.96c-2.21.57-4.6.23-6.62-.92l-1.28-.73h-.2ZM80.68,120.32c-1.61,0-3.22-.43-4.65-1.25l-2.6-1.48,1.65.11,1.31.75c1.95,1.11,4.26,1.43,6.39.88l3.78-.97,2.37.14-5.96,1.53c-.75.19-1.52.29-2.29.29Z"/>
      <polygon class="cls-5" points="89.22 118.27 100.32 115.42 100.98 114.82 87.87 118.19 89.22 118.27"/>
      <path class="cls-5" d="M88.88,118.09l.32.02,11.05-2.83.16-.14-11.52,2.96ZM89.23,118.42l-2.38-.14,14.7-3.77-1.2,1.06-11.13,2.86Z"/>
      <path class="cls-5" d="M109.32,60.03l-4.57-2.6.93.99,3.44,1.96c1.08.62,2.01,1.44,2.74,2.42h.5c-.79-1.13-1.82-2.08-3.04-2.78"/>
      <path class="cls-5" d="M111.95,62.65h.12c-.76-1.01-1.7-1.85-2.82-2.48l-3.67-2.09.2.22,3.43,1.95c1.08.62,2,1.43,2.74,2.4ZM112.67,62.96h-.88l-.05-.06c-.72-.97-1.63-1.77-2.69-2.38l-3.48-1.99-1.63-1.74,5.47,3.12c1.24.71,2.29,1.66,3.1,2.82l.17.24Z"/>
      <path class="cls-5" d="M103.28,114.23l-1.43.37-.66.59,2.21-.57c2.3-.59,4.19-2.03,5.34-4.06l1.92-3.4h-.48l-1.8,3.2c-1.09,1.94-2.9,3.32-5.09,3.88"/>
      <path class="cls-5" d="M101.93,114.74l-.16.14,1.59-.41c2.26-.58,4.12-2,5.24-3.99l1.79-3.17h-.12l-1.76,3.12c-1.11,1.97-2.96,3.38-5.19,3.95l-1.4.36ZM100.62,115.5l1.2-1.06,1.43-.37c2.15-.55,3.92-1.9,4.99-3.8l1.85-3.28h.84l-2.05,3.64c-1.17,2.07-3.1,3.54-5.43,4.14l-2.83.73Z"/>
      <path class="cls-2" d="M64.28,109.67l4.44,1.62-1.08-.82-3.22-1.17c-1.23-.45-2.32-1.18-3.18-2.12h-.54c.94,1.12,2.17,1.99,3.58,2.51"/>
      <path class="cls-2" d="M61.05,107.32c.9.98,2.03,1.74,3.29,2.2l3.47,1.26-.24-.18-3.2-1.17c-1.22-.44-2.32-1.17-3.19-2.11h-.12ZM69.64,111.78l-5.41-1.97c-1.42-.52-2.69-1.4-3.65-2.55l-.22-.26h.94l.05.05c.85.93,1.92,1.65,3.12,2.08l3.26,1.2,1.9,1.45Z"/>
      <path class="cls-2" d="M78.21,52.57c1.84-.84,3.92-.91,5.86-.2l1.19.43.9-.1-1.96-.71c-2.05-.75-4.24-.67-6.17.21l-4.19,1.91,1.33-.15,3.04-1.38Z"/>
      <path class="cls-2" d="M81.35,51.64c-1.13,0-2.23.24-3.26.71l-3.29,1.5.32-.04,3.02-1.38c1.86-.85,4-.92,5.98-.2l1.16.42.2-.02-1.33-.49c-.91-.33-1.85-.5-2.8-.5ZM72.87,54.38l5.09-2.32c1.96-.89,4.22-.97,6.29-.22l2.58.94-1.6.18-1.23-.45c-1.9-.69-3.95-.62-5.74.2l-3.09,1.4-2.32.26Z"/>
      <polygon class="cls-2" points="70 111.75 79.67 115.27 80.57 115.17 68.91 110.92 70 111.75"/>
      <path class="cls-2" d="M70.07,111.61l9.62,3.5.2-.02-10.06-3.67.24.18ZM79.65,115.43h-.04s-9.72-3.56-9.72-3.56l-1.9-1.45,13.25,4.83-1.6.18Z"/>
      <polygon class="cls-2" points="94.06 113.63 103.2 109.47 103.74 108.77 92.73 113.78 94.06 113.63"/>
      <path class="cls-2" d="M103.23,109.17l-9.54,4.34.32-.04,9.08-4.14.13-.17ZM91.76,114.05l12.49-5.69-.99,1.25-9.19,4.18-2.32.26Z"/>
      <polygon class="cls-2" points="72.63 54.66 63.49 58.82 62.95 59.52 73.96 54.51 72.63 54.66"/>
      <path class="cls-2" d="M63.59,58.95l-.13.17,9.54-4.34-.32.04-9.08,4.14ZM62.44,59.93l.99-1.25,9.19-4.18,2.32-.26-12.49,5.69Z"/>
      <path class="cls-2" d="M61.01,60.41l1.13-.51.54-.7-1.85.84c-1.35.61-2.46,1.57-3.24,2.77h.51c.73-1.03,1.73-1.86,2.92-2.4"/>
      <path class="cls-2" d="M57.88,62.65h.13c.74-1.03,1.76-1.85,2.93-2.39l1.09-.5.13-.17-1.27.58c-1.22.55-2.25,1.41-3.01,2.47ZM58.17,62.96h-.88l.16-.24c.8-1.23,1.95-2.21,3.31-2.83l2.42-1.11-.99,1.25-1.13.51c-1.15.53-2.14,1.34-2.85,2.35l-.05.07Z"/>
      <polygon class="cls-2" points="96.7 56.55 87.02 53.02 86.12 53.12 97.78 57.37 96.7 56.55"/>
      <path class="cls-2" d="M86.8,53.2l10.06,3.67-.24-.18-9.62-3.5-.2.02ZM98.7,57.87l-13.26-4.83,1.6-.18h.04s9.72,3.56,9.72,3.56l1.9,1.45Z"/>
      <path class="cls-2" d="M88.48,115.72c-1.84.84-3.92.91-5.86.2l-1.19-.43-.9.1,1.96.71c2.05.75,4.24.67,6.17-.21l4.19-1.91-1.33.15-3.04,1.39Z"/>
      <path class="cls-2" d="M81.21,115.67l1.34.49c2,.73,4.17.66,6.05-.2l3.29-1.5-.32.04-3.02,1.38c-1.86.85-4,.92-5.98.2l-1.16-.42-.2.02ZM85.35,116.97c-.99,0-1.96-.18-2.91-.52l-2.59-.94,1.59-.18,1.23.45c1.9.69,3.95.62,5.74-.19l3.09-1.4,2.32-.26-5.09,2.32c-1.07.49-2.2.73-3.38.73Z"/>
      <path class="cls-2" d="M102.41,58.62l-4.43-1.62,1.08.82,3.22,1.17c1.89.69,3.43,2.04,4.35,3.8h.46v-.02c-.97-1.94-2.63-3.41-4.68-4.16"/>
      <path class="cls-2" d="M106.72,62.65h.11c-.96-1.8-2.54-3.17-4.47-3.88l-3.47-1.26.24.19,3.2,1.16c1.89.69,3.44,2.04,4.39,3.79ZM107.09,62.96h-.55l-.04-.08c-.9-1.73-2.42-3.05-4.26-3.73l-3.26-1.19-1.9-1.45,5.4,1.97c2.08.76,3.77,2.27,4.75,4.24l.11.23-.24.03Z"/>
      <path class="cls-2" d="M104.55,108.4l-.54.7,1.85-.84c.64-.29,1.22-.66,1.75-1.09h-.68c-.39.28-.8.52-1.25.72l-1.13.51Z"/>
      <path class="cls-2" d="M104.65,108.52l-.13.17,1.28-.58c.48-.22.93-.49,1.35-.79h-.18c-.39.28-.81.51-1.23.71l-1.09.5ZM103.5,109.5l.99-1.25,1.12-.51c.42-.19.84-.43,1.22-.71l.04-.03h1.17l-.34.28c-.54.45-1.14.82-1.78,1.12l-2.42,1.1Z"/>
      <polygon class="cls-1" points="76.09 110.86 84.96 112.47 85.82 112.21 74.89 110.23 76.09 110.86"/>
      <path class="cls-1" d="M76.15,110.71l8.81,1.6.19-.06-9.27-1.69.27.14ZM84.97,112.63l-8.95-1.63-2.12-1.11,12.59,2.29-1.53.45Z"/>
      <path class="cls-1" d="M92.87,111.49c-1.48,1.03-3.3,1.41-5.11,1.08l-1.04-.19-.86.26,1.83.33c1.93.35,3.85-.05,5.42-1.14l3.39-2.35-1.28.38-2.36,1.63Z"/>
      <path class="cls-1" d="M86.54,112.6l1.19.22c1.88.34,3.78-.06,5.3-1.12l2.58-1.79-.31.09-2.33,1.62c-1.51,1.04-3.38,1.44-5.23,1.1l-1-.18-.19.06ZM89.05,113.25c-.46,0-.92-.04-1.38-.13l-2.48-.45,1.53-.45,1.07.19c1.77.32,3.56-.06,5-1.05l2.4-1.65,2.22-.66-4.19,2.9c-1.22.85-2.65,1.29-4.16,1.29Z"/>
      <polygon class="cls-1" points="69.1 59.56 64.42 62.81 65.15 62.81 70.38 59.18 69.1 59.56"/>
      <path class="cls-1" d="M64.92,62.65h.18l4.39-3.04-.31.09-4.26,2.95ZM65.2,62.96h-1.28l5.14-3.55,2.21-.66-6.08,4.21Z"/>
      <path class="cls-1" d="M96.09,58.43l-4.16-.76,1.2.63,2.89.53c1.82.33,3.42,1.34,4.51,2.83l.62.85.56.3h.15l-1-1.37c-1.16-1.59-2.86-2.65-4.79-3"/>
      <path class="cls-1" d="M101.27,62.39l.18.09-.7-.96c-1.13-1.55-2.8-2.59-4.69-2.94l-3.15-.57.27.14,2.87.52c1.86.34,3.5,1.36,4.61,2.89l.6.82ZM102.19,62.96l-.54-.02-.62-.34-.62-.85c-1.07-1.46-2.63-2.44-4.42-2.77l-2.94-.54-2.12-1.11,5.17.94c1.97.36,3.7,1.44,4.88,3.06l1.19,1.62Z"/>
      <path class="cls-1" d="M73.82,56.8c1.48-1.02,3.3-1.41,5.11-1.08l1.03.19.86-.26-1.83-.33c-1.93-.35-3.85.05-5.42,1.14l-3.39,2.35,1.27-.38,2.36-1.63Z"/>
      <path class="cls-1" d="M77.64,55.36c-1.44,0-2.81.43-3.98,1.24l-2.58,1.79.31-.09,2.34-1.62c1.51-1.04,3.38-1.44,5.23-1.1l1,.18.19-.06-1.19-.22c-.44-.08-.88-.12-1.32-.12ZM69.29,59.24l4.19-2.9c1.59-1.1,3.58-1.52,5.54-1.17l2.48.45-1.53.45-1.07-.19c-1.76-.32-3.56.05-5,1.05l-2.4,1.65-2.21.66Z"/>
      <polygon class="cls-1" points="90.59 57.43 81.73 55.82 80.87 56.07 91.8 58.07 90.59 57.43"/>
      <path class="cls-1" d="M81.54,56.04l9.27,1.69-.27-.14-8.81-1.6-.19.06ZM92.78,58.4l-12.59-2.29,1.53-.45,8.95,1.64,2.12,1.11Z"/>
      <polygon class="cls-1" points="97.59 108.73 99.85 107.16 99.12 107.16 96.31 109.11 97.59 108.73"/>
      <path class="cls-1" d="M99.17,107.32l-1.97,1.36.31-.09,1.83-1.27h-.18ZM95.42,109.54l3.65-2.53h1.28l-2.72,1.88-2.21.66Z"/>
      <path class="cls-1" d="M70.6,109.86l4.16.76-1.2-.63-2.9-.53c-1.59-.29-3.02-1.1-4.08-2.29h-.53c1.15,1.42,2.75,2.37,4.55,2.7"/>
      <path class="cls-1" d="M66.39,107.32c1.1,1.24,2.6,2.08,4.24,2.38l3.15.57-.27-.14-2.87-.52c-1.61-.29-3.03-1.09-4.12-2.29h-.12ZM75.75,110.95l-5.17-.94c-1.83-.33-3.48-1.31-4.64-2.75l-.21-.26h.93l.05.05c1.05,1.18,2.43,1.96,3.99,2.24l2.94.54,2.12,1.11Z"/>
      <path class="cls-7" d="M90.5,59.64c1.65.01,3.22.66,4.41,1.82l.62.6.87.28-1.2-1.17c-1.27-1.24-2.95-1.93-4.71-1.94l-3.78-.04,1.29.42,2.5.02Z"/>
      <path class="cls-7" d="M95.61,61.93l.19.06-.72-.7c-1.25-1.21-2.88-1.88-4.6-1.9l-2.76-.03.3.1,2.48.02c1.69.02,3.3.68,4.52,1.86l.59.57ZM96.99,62.71l-1.57-.53-.62-.6c-1.16-1.13-2.69-1.76-4.3-1.78l-2.55-.03-2.26-.73,4.8.04c1.8.02,3.51.72,4.81,1.98l1.69,1.64Z"/>
      <path class="cls-7" d="M90.89,108.78l-.8.4h1.66c1.76.03,3.4-.63,4.61-1.84l.18-.18h-.6c-1.12,1.07-2.61,1.64-4.2,1.63h-.85Z"/>
      <path class="cls-7" d="M90.74,109.03h1.07c1.65,0,3.19-.6,4.34-1.71h-.15c-1.13,1.05-2.62,1.63-4.2,1.63h-.88s-.18.08-.18.08ZM91.81,109.35l-2.38-.02,1.42-.71h.95c1.52,0,2.95-.55,4.03-1.58l.04-.04h1.04l-.45.44c-1.22,1.23-2.88,1.9-4.66,1.9Z"/>
      <polygon class="cls-7" points="85.36 59.19 77.51 59.12 76.71 59.52 86.65 59.61 85.36 59.19"/>
      <path class="cls-7" d="M77.36,59.37l8.27.08-.3-.1-7.79-.07-.18.09ZM87.67,59.78l-11.61-.11,1.41-.71h.04l7.9.08,2.26.73Z"/>
      <polygon class="cls-7" points="81.33 109.1 89.18 109.17 89.98 108.77 80.04 108.68 81.33 109.1"/>
      <path class="cls-7" d="M81.36,108.95l7.79.07.19-.09-8.28-.08.3.1ZM89.22,109.33h-.04l-7.9-.08-2.26-.74,11.61.11-1.41.71Z"/>
      <polygon class="cls-7" points="96.29 62.81 96.5 62.81 96.19 62.7 96.29 62.81"/>
      <polygon class="cls-7" points="97.51 62.96 96.23 62.96 95.58 62.35 97.51 62.96"/>
      <path class="cls-7" d="M74.95,59.5h.85s.8-.39.8-.39h-1.66c-1.76-.03-3.4.63-4.61,1.84l-1.85,1.85h.59l1.56-1.56c1.13-1.14,2.67-1.76,4.32-1.74"/>
      <path class="cls-7" d="M68.85,62.65h.15l1.52-1.52c1.15-1.15,2.7-1.79,4.37-1.79h.87s.18-.09.18-.09h-1.08c-1.69,0-3.27.63-4.43,1.8l-1.58,1.59ZM69.13,62.96h-1.03l2.12-2.12c1.23-1.23,2.88-1.9,4.66-1.9l2.38.02-1.41.71h-.95c-1.58,0-3.06.59-4.15,1.69l-1.61,1.61Z"/>
      <path class="cls-7" d="M79.99,109.09l-1.29-.42-2.5-.02c-1.48-.01-2.9-.54-4.03-1.48h-.61c1.27,1.2,2.92,1.88,4.65,1.89l3.78.03Z"/>
      <path class="cls-7" d="M71.96,107.32c1.19,1.01,2.69,1.56,4.24,1.58l2.76.03-.3-.1-2.48-.02c-1.48-.01-2.93-.54-4.09-1.48h-.14ZM81,109.26l-4.8-.04c-1.77-.02-3.46-.7-4.76-1.94l-.28-.27h1.06l.04.04c1.11.92,2.5,1.43,3.93,1.45l2.55.03,2.26.74Z"/>
      <polygon class="cls-5" points="81.02 61.58 74.31 62.69 74.16 62.81 76.14 62.81 82.36 61.78 81.02 61.58"/>
      <path class="cls-5" d="M75.54,62.65h.59l5.21-.86-.31-.04-5.49.9ZM76.15,62.96h-2.47l.6-.42,6.74-1.11,2.36.34-7.23,1.19Z"/>
      <path class="cls-5" d="M85.76,61.22c1.45-.24,2.93.09,4.16.94l.57.39.9.13-1.24-.85c-1.32-.91-2.91-1.27-4.47-1.01l-3.34.55,1.34.19,2.08-.34Z"/>
      <path class="cls-5" d="M90.55,62.4l.2.03-.69-.47c-1.28-.88-2.85-1.24-4.35-.98l-2.34.39.31.05,2.05-.34c1.48-.24,3.01.1,4.27.97l.54.37ZM92.03,62.93l-1.63-.25-.57-.39c-1.19-.82-2.64-1.15-4.04-.92l-2.1.35-2.36-.34,4.33-.71c1.59-.26,3.23.11,4.58,1.04l1.8,1.24Z"/>
      <path class="cls-2" d="M4.3,54.32l6.45-8.37.8-1.04,18.94-24.58.54-.7,2.74-3.55c3.2-4.15,7.88-6.77,13.2-7.37l10.73-1.22,1.33-.15,31.51-3.59.9-.1,4.55-.52c5.32-.61,10.63.87,14.95,4.16l8.72,6.64,1.08.82,25.63,19.51.73.56,3.7,2.82c2.55,1.94,4.65,4.47,6.06,7.32.94,1.89,1.57,3.88,1.88,5.94l1.61,10.61.2,1.31h.42l-.02-.11-1.8-11.86c-.32-2.1-.97-4.14-1.92-6.06-1.44-2.9-3.58-5.49-6.19-7.47l-4.35-3.31-.73-.55-23.95-18.22-1.08-.82-9.75-7.42c-4.41-3.36-9.83-4.87-15.26-4.25l-5.35.61-.9.1-29.45,3.36-1.33.15-11.99,1.37c-5.43.62-10.21,3.29-13.47,7.52l-3.22,4.17-.54.7-17.7,22.97-.8,1.04-7.21,9.36c-2,2.59-3.27,5.58-3.78,8.74h.42c.5-3.06,1.75-5.96,3.69-8.48"/>
      <path class="cls-2" d="M160.7,62.65h.1l-1.79-11.79c-.32-2.08-.96-4.11-1.9-6.02-1.43-2.88-3.55-5.45-6.14-7.41L111.09,7.09c-3.74-2.85-8.16-4.35-12.78-4.35-.79,0-1.58.04-2.37.13l-49.03,5.59c-5.38.61-10.13,3.26-13.37,7.46L4.09,54.16c-1.91,2.48-3.2,5.41-3.72,8.48h.1c.52-3.05,1.8-5.96,3.7-8.42L33.64,15.98c3.22-4.18,7.95-6.82,13.31-7.43l49.03-5.59c.78-.09,1.57-.13,2.36-.13,4.59,0,8.98,1.5,12.71,4.33l39.87,30.34c2.57,1.96,4.68,4.51,6.11,7.37.94,1.9,1.58,3.91,1.9,5.99l1.79,11.79ZM161.16,62.96h-.73l-1.83-12.06c-.31-2.04-.94-4.02-1.87-5.89-1.4-2.83-3.49-5.34-6.02-7.26L110.85,7.41c-3.67-2.79-7.99-4.26-12.52-4.26-.77,0-1.55.04-2.32.13l-49.03,5.59c-5.27.6-9.93,3.2-13.1,7.31L4.42,54.42c-1.9,2.46-3.16,5.37-3.66,8.41l-.02.13h-.74l.03-.18c.51-3.19,1.83-6.23,3.81-8.81L33.3,15.73c3.29-4.27,8.11-6.96,13.58-7.58l49.03-5.59c.8-.09,1.61-.14,2.4-.14,4.69,0,9.17,1.53,12.97,4.42l39.87,30.34c2.62,2,4.78,4.6,6.23,7.52.96,1.94,1.61,3.99,1.93,6.11l1.84,12.15Z"/>
      <path class="cls-2" d="M162.39,113.97l-6.45,8.37-.8,1.04-18.94,24.59-.54.7-2.74,3.55c-3.19,4.15-7.88,6.77-13.2,7.37l-10.73,1.22-1.33.15-31.52,3.59-.9.1-4.55.52c-5.32.61-10.63-.87-14.95-4.16l-8.73-6.64-1.08-.82-25.63-19.51-.73-.56-3.7-2.82c-2.55-1.94-4.65-4.48-6.06-7.32-.94-1.89-1.57-3.88-1.88-5.94l-1.55-10.25h-.42l1.56,10.29c.32,2.1.96,4.14,1.92,6.06,1.44,2.9,3.58,5.49,6.19,7.47l4.35,3.31.73.56,23.95,18.23,1.08.82,9.75,7.42c4.41,3.36,9.83,4.87,15.26,4.25l5.35-.61.9-.1,29.45-3.36,1.33-.15,12-1.37c5.43-.62,10.21-3.29,13.47-7.52l3.22-4.17.54-.7,17.7-22.98.8-1.04,7.21-9.36c1.64-2.13,2.79-4.52,3.43-7.06h-.43c-.63,2.45-1.75,4.75-3.33,6.81"/>
      <path class="cls-2" d="M6.15,107.32l1.53,10.11c.32,2.09.96,4.11,1.9,6.02,1.43,2.88,3.55,5.45,6.14,7.42l39.87,30.34c3.74,2.85,8.16,4.35,12.78,4.35.79,0,1.58-.04,2.37-.13l49.03-5.59c5.38-.61,10.13-3.26,13.36-7.46l29.47-38.24c1.58-2.05,2.7-4.34,3.36-6.81h-.11c-.65,2.45-1.77,4.72-3.33,6.74l-29.47,38.24c-3.22,4.18-7.95,6.82-13.31,7.43l-49.03,5.59c-.78.09-1.57.13-2.35.13-4.59,0-8.99-1.5-12.71-4.33l-39.87-30.34c-2.57-1.96-4.68-4.51-6.11-7.37-.94-1.89-1.58-3.91-1.9-5.99l-1.53-10.12h-.1ZM68.37,165.87c-4.69,0-9.17-1.53-12.97-4.42l-39.87-30.34c-2.62-2-4.78-4.6-6.23-7.53-.96-1.93-1.61-3.99-1.93-6.11l-1.59-10.47h.73l1.57,10.38c.31,2.05.94,4.03,1.87,5.9,1.4,2.82,3.49,5.33,6.02,7.26l39.87,30.34c3.66,2.79,7.99,4.26,12.52,4.26.77,0,1.55-.04,2.32-.13l49.03-5.59c5.27-.6,9.92-3.2,13.09-7.31l29.47-38.24c1.56-2.02,2.67-4.3,3.31-6.75l.03-.12h.76l-.05.2c-.65,2.59-1.82,4.98-3.46,7.12l-29.47,38.24c-3.29,4.27-8.11,6.96-13.58,7.58l-49.03,5.59c-.8.09-1.61.14-2.41.14Z"/>
      <path class="cls-3" d="M148.34,53.06l-3.47-10.3c-.27-.8-.6-1.59-.97-2.35-1.78-3.59-4.74-6.6-8.33-8.48l-4.36-2.28-.81-.43-23.8-12.46-1.2-.63-9.77-5.12c-4.43-2.32-9.45-2.83-14.13-1.44l-4.61,1.37-.86.25-25.21,7.47-1.28.38-10.35,3.06c-4.69,1.39-8.48,4.51-10.69,8.79l-2.17,4.22-.41.78-11.84,23.02-.6,1.17-1.4,2.71h.47l.73-1.42.6-1.17,12.78-24.83.41-.78,1.81-3.51c2.15-4.18,5.86-7.24,10.45-8.6l9.13-2.71,1.28-.38,27.19-8.05.86-.26,3.85-1.14c4.58-1.36,9.49-.86,13.82,1.41l8.62,4.52,1.2.63,25.67,13.44.81.43,3.63,1.9c3.51,1.83,6.4,4.78,8.14,8.29.37.74.69,1.52.95,2.3l3.06,9.09.43,1.27,3.22,9.56h.43l-2.85-8.47-.43-1.27Z"/>
      <path class="cls-3" d="M151.3,62.65h.1l-6.68-19.84c-.27-.8-.59-1.59-.97-2.33-1.77-3.56-4.7-6.55-8.26-8.41l-39.94-20.92c-2.73-1.43-5.77-2.19-8.79-2.19-1.77,0-3.53.26-5.23.76l-42.3,12.53c-4.65,1.38-8.41,4.47-10.59,8.71l-16.3,31.68h.12l16.28-31.63c2.17-4.22,5.92-7.31,10.54-8.67l42.3-12.53c1.69-.5,3.44-.76,5.2-.76,3,0,6.01.75,8.73,2.17l39.94,20.92c3.53,1.85,6.45,4.82,8.21,8.36.37.74.7,1.52.96,2.32l6.68,19.82ZM151.84,62.96h-.76l-.04-.11-6.71-19.93c-.26-.78-.58-1.55-.95-2.28-1.73-3.48-4.59-6.4-8.07-8.22l-39.95-20.91c-2.67-1.4-5.64-2.14-8.59-2.14-1.73,0-3.45.25-5.11.74l-42.3,12.53c-4.54,1.35-8.22,4.37-10.35,8.52l-16.36,31.79h-.82L28.36,30.83c2.22-4.32,6.05-7.47,10.78-8.87l42.3-12.53c1.73-.51,3.52-.77,5.32-.77,3.07,0,6.15.77,8.93,2.23l39.94,20.92c3.61,1.89,6.6,4.93,8.39,8.55.38.76.71,1.56.98,2.37l6.82,20.25Z"/>
      <path class="cls-3" d="M18.35,115.23l3.47,10.3c.27.8.6,1.59.97,2.35,1.78,3.59,4.74,6.6,8.32,8.48l4.36,2.28.81.43,23.8,12.46,1.2.63,9.77,5.11c4.43,2.32,9.45,2.83,14.13,1.44l4.62-1.37.86-.26,25.21-7.47,1.27-.38,10.35-3.06c4.69-1.39,8.48-4.51,10.69-8.79l2.17-4.21.41-.78,11.85-23.02.6-1.17.53-1.04h-.47l-.47.9-12.78,24.83-.41.78-1.81,3.51c-2.16,4.18-5.86,7.24-10.45,8.59l-9.13,2.71-1.27.38-27.19,8.06-.86.26-3.85,1.14c-4.58,1.36-9.49.86-13.82-1.41l-8.62-4.52-1.2-.63-25.67-13.44-.81-.43-3.63-1.9c-3.51-1.83-6.4-4.78-8.14-8.29-.37-.74-.69-1.52-.95-2.3l-3.06-9.09-.43-1.27-2.66-7.89h-.43l2.29,6.8.42,1.28Z"/>
      <path class="cls-3" d="M15.85,107.32l6.12,18.16c.27.8.59,1.58.97,2.33,1.77,3.56,4.7,6.55,8.26,8.41l39.94,20.91c2.73,1.43,5.77,2.19,8.79,2.19,1.77,0,3.53-.26,5.23-.76l42.3-12.53c4.65-1.38,8.41-4.47,10.59-8.71l15.44-30h-.12l-15.41,29.95c-2.18,4.22-5.92,7.3-10.54,8.67l-42.3,12.53c-1.69.5-3.44.76-5.2.76-3,0-6.02-.75-8.73-2.18l-39.94-20.92c-3.54-1.85-6.45-4.82-8.21-8.36-.37-.75-.69-1.53-.96-2.32l-6.11-18.14h-.1ZM79.92,159.64c-3.06,0-6.15-.77-8.93-2.23l-39.94-20.91c-3.61-1.89-6.59-4.93-8.39-8.55-.38-.76-.71-1.56-.99-2.37l-6.25-18.57h.76l3.12,9.26,3.06,9.09c.26.78.58,1.55.95,2.28,1.73,3.48,4.59,6.4,8.07,8.22l39.94,20.92c2.67,1.4,5.64,2.14,8.59,2.14,1.73,0,3.45-.25,5.11-.74l42.3-12.53c4.54-1.35,8.22-4.37,10.35-8.52l15.5-30.12h.82l-1.25,2.43-14.42,28.02c-2.23,4.32-6.05,7.47-10.78,8.87l-42.3,12.53c-1.73.51-3.52.77-5.32.77Z"/>
      <path class="cls-4" d="M135.69,46.41l-4.69-8.65c-2.13-3.92-5.65-6.85-9.93-8.24l-4.2-1.36-.87-.28-22.74-7.38-1.29-.42-9.42-3.06c-4.27-1.39-8.78-1.07-12.7.89l-3.84,1.93-.8.4-20.83,10.44-1.18.59-8.63,4.33c-3.91,1.96-6.77,5.34-8.03,9.5l-1.24,4.09-.26.85-3.87,12.76h.43l4.06-13.39.26-.85,1.01-3.33c1.23-4.06,4.01-7.35,7.83-9.26l7.5-3.76,1.18-.59,22.67-11.36.8-.4,3.13-1.57c3.82-1.91,8.21-2.22,12.38-.87l8.19,2.66,1.29.42,24.74,8.03.87.28,3.42,1.11c4.17,1.35,7.6,4.2,9.68,8.03l4.08,7.52.64,1.18,8.77,16.16h.46l-8.25-15.21-.64-1.19Z"/>
      <path class="cls-4" d="M144.21,62.65h.11l-13.46-24.81c-2.11-3.89-5.61-6.79-9.84-8.16l-38.51-12.5c-1.72-.56-3.49-.84-5.27-.84-2.57,0-5.03.58-7.31,1.73l-35.28,17.69c-3.88,1.94-6.7,5.28-7.95,9.4l-5.31,17.5h.11l5.3-17.46c1.24-4.1,4.05-7.43,7.91-9.36l35.28-17.69c2.27-1.14,4.72-1.72,7.27-1.72,1.76,0,3.52.28,5.23.84l38.51,12.5c4.2,1.37,7.67,4.24,9.77,8.11l13.44,24.78ZM144.84,62.96h-.82l-.04-.08-13.48-24.86c-2.05-3.79-5.46-6.62-9.59-7.96l-38.51-12.5c-1.68-.54-3.41-.82-5.13-.82-2.5,0-4.9.57-7.13,1.68l-35.28,17.69c-3.78,1.89-6.53,5.15-7.75,9.17l-5.36,17.68h-.76l5.43-17.9c1.28-4.21,4.15-7.61,8.11-9.59l35.28-17.69c2.33-1.17,4.84-1.76,7.45-1.76,1.8,0,3.61.29,5.36.86l38.51,12.5c4.31,1.4,7.86,4.35,10.02,8.31l13.71,25.28Z"/>
      <path class="cls-4" d="M31.01,121.88l4.69,8.65c2.13,3.92,5.65,6.85,9.93,8.24l4.2,1.36.87.28,22.73,7.38,1.29.42,9.42,3.06c4.27,1.39,8.78,1.07,12.7-.89l3.84-1.93.8-.4,20.83-10.44,1.19-.59,8.63-4.33c3.92-1.96,6.77-5.34,8.03-9.5l1.24-4.09.26-.85,3.36-11.09h-.43l-3.55,11.71-.26.85-1.01,3.33c-1.23,4.06-4.01,7.35-7.83,9.26l-7.5,3.76-1.18.59-22.67,11.36-.8.4-3.13,1.57c-3.82,1.91-8.21,2.22-12.38.87l-8.19-2.66-1.29-.42-24.74-8.03-.87-.28-3.42-1.11c-4.17-1.35-7.61-4.2-9.68-8.03l-4.08-7.52-.64-1.19-7.85-14.48h-.46l7.34,13.53.65,1.19Z"/>
      <path class="cls-4" d="M23.29,107.32l12.55,23.13c2.11,3.89,5.6,6.79,9.84,8.16l38.51,12.5c1.72.56,3.49.84,5.27.84,2.57,0,5.03-.58,7.31-1.73l35.28-17.69c3.88-1.94,6.7-5.28,7.95-9.4l4.8-15.82h-.11l-4.79,15.78c-1.25,4.1-4.05,7.42-7.91,9.36l-35.28,17.69c-2.27,1.14-4.72,1.71-7.27,1.71-1.76,0-3.52-.28-5.23-.84l-38.51-12.5c-4.2-1.36-7.67-4.24-9.77-8.11l-12.53-23.1h-.11ZM89.45,152.27c-1.8,0-3.61-.29-5.36-.86l-38.51-12.5c-4.31-1.4-7.87-4.35-10.01-8.31l-12.8-23.6h.82l.04.08,12.57,23.18c2.06,3.79,5.46,6.62,9.59,7.96l38.51,12.5c1.68.55,3.41.82,5.13.82,2.5,0,4.9-.57,7.13-1.68l35.28-17.69c3.78-1.89,6.53-5.15,7.75-9.17l4.86-16h.76l-4.92,16.22c-1.28,4.2-4.15,7.61-8.11,9.59l-35.28,17.69c-2.33,1.17-4.84,1.77-7.46,1.77Z"/>
      <path class="cls-2" d="M137.47,60.19l-13.16-16.7-.84-1.07-5.5-6.99c-2.5-3.18-6.08-5.24-10.07-5.82l-3.91-.57-.9-.13-20.98-3.05-1.34-.19-8.78-1.27c-3.99-.58-7.92.4-11.06,2.76l-3.08,2.31-.71.53-16.52,12.39-1.05.79-6.91,5.18c-3.14,2.36-5.12,5.81-5.57,9.72l-.44,3.83-.1.89h0s.42.01.42.01l.08-.74.1-.89.35-3.04c.44-3.8,2.36-7.16,5.42-9.45l5.9-4.43,1.05-.79,18.16-13.62.71-.53,2.44-1.83c3.05-2.29,6.88-3.24,10.75-2.68l7.5,1.09,1.34.2,23.06,3.35.9.13,3.1.45c3.88.56,7.36,2.57,9.79,5.66l4.7,5.97.84,1.07,14.46,18.36.57.72.8,1.01h.52l-1.5-1.9-.57-.72Z"/>
      <path class="cls-2" d="M139.09,62.65h.12l-21.36-27.12c-2.48-3.14-6.02-5.19-9.97-5.76l-35.91-5.22c-.73-.11-1.48-.16-2.21-.16-3.19,0-6.21,1-8.73,2.89l-28.27,21.2c-3.11,2.33-5.06,5.74-5.51,9.61l-.53,4.55h.1l.52-4.53c.45-3.85,2.39-7.24,5.48-9.56l28.27-21.2c2.5-1.88,5.5-2.87,8.67-2.87.73,0,1.47.05,2.2.16l35.91,5.22c3.92.57,7.43,2.6,9.89,5.72l21.32,27.07ZM139.86,62.96h-.92l-1.41-1.79-20-25.39c-2.41-3.06-5.85-5.05-9.69-5.6l-35.91-5.22c-.72-.1-1.44-.16-2.15-.16-3.1,0-6.04.97-8.48,2.81l-28.27,21.2c-3.02,2.27-4.92,5.58-5.36,9.34l-.55,4.81h-.74l.03-.18.55-4.72c.46-3.95,2.46-7.45,5.63-9.83l28.27-21.21c2.57-1.93,5.66-2.95,8.92-2.95.75,0,1.51.05,2.26.16l35.91,5.22c4.03.58,7.64,2.67,10.17,5.88l21.76,27.62Z"/>
      <path class="cls-2" d="M29.22,108.1l13.16,16.7.84,1.07,5.5,6.99c2.5,3.17,6.08,5.24,10.07,5.82l3.9.57.9.13,20.99,3.05,1.34.19,8.78,1.27c3.99.58,7.92-.4,11.06-2.75l3.08-2.31.71-.53,16.52-12.39,1.05-.79,6.91-5.18c3.14-2.36,5.12-5.81,5.57-9.72l.35-3.05h-.42l-.35,2.99c-.44,3.8-2.36,7.16-5.42,9.45l-5.9,4.43-1.05.79-18.16,13.62-.71.53-2.44,1.83c-3.05,2.29-6.87,3.24-10.75,2.68l-7.51-1.09-1.34-.19-23.06-3.35-.9-.13-3.1-.45c-3.88-.56-7.35-2.57-9.79-5.66l-4.7-5.97-.84-1.07-14.46-18.35-.05-.06h-.51l.17.22.57.72Z"/>
      <path class="cls-2" d="M28.8,107.32l.54.69,19.5,24.75c2.48,3.14,6.02,5.19,9.97,5.76l35.91,5.22c.74.11,1.48.16,2.22.16,3.19,0,6.21-1,8.72-2.89l28.27-21.2c3.11-2.33,5.07-5.74,5.51-9.61l.33-2.87h-.1l-.33,2.85c-.45,3.85-2.39,7.24-5.48,9.56l-28.26,21.2c-2.5,1.88-5.5,2.87-8.67,2.87-.73,0-1.47-.05-2.2-.16l-35.91-5.22c-3.92-.57-7.43-2.6-9.89-5.72l-20-25.39h-.12ZM96.93,144.21c-.75,0-1.51-.05-2.26-.16l-35.91-5.22c-4.03-.58-7.64-2.67-10.17-5.88l-20.44-25.95h.91l.09.12,20,25.39c2.41,3.06,5.85,5.04,9.69,5.6l35.91,5.22c.72.1,1.44.16,2.15.16,3.1,0,6.04-.97,8.48-2.81l28.27-21.21c3.02-2.26,4.92-5.58,5.36-9.34l.36-3.13h.73l-.37,3.22c-.46,3.95-2.46,7.45-5.63,9.83l-28.27,21.2c-2.57,1.93-5.65,2.95-8.91,2.95Z"/>
      <path class="cls-4" d="M130.5,57.38l-2.65-2.39-.68-.61-14.08-12.72-1.01-.91-5.96-5.38c-2.71-2.45-6.2-3.74-9.81-3.65l-3.53.09-.91.03-18.75.51-1.34.04-7.93.22c-3.61.1-6.92,1.58-9.32,4.17l-2.34,2.53-.6.65-12.44,13.44-.89.96-5.26,5.68c-.78.85-1.44,1.78-1.96,2.78h.47c.49-.89,1.09-1.73,1.8-2.5l4.41-4.77.89-.96,13.83-14.93.6-.65,1.8-1.95c2.32-2.51,5.53-3.95,9.03-4.04l6.65-.18,1.34-.04,20.84-.57.91-.03,2.72-.07c3.5-.09,6.88,1.16,9.51,3.53l5,4.51,1.01.91,15.65,14.14.68.61,2.04,1.85c1.28,1.15,2.31,2.51,3.07,4.04.18.36.34.72.48,1.09h.44c-.16-.43-.34-.85-.55-1.26-.78-1.58-1.85-2.98-3.16-4.17"/>
      <path class="cls-4" d="M133.88,62.65h.1c-.14-.35-.29-.7-.46-1.03-.77-1.55-1.82-2.94-3.13-4.12l-24.37-22.02c-2.67-2.41-6.12-3.71-9.7-3.61l-32.46.88c-3.57.09-6.84,1.56-9.21,4.11l-21.54,23.26c-.7.76-1.31,1.61-1.81,2.52h.12c.49-.88,1.09-1.71,1.77-2.45l21.54-23.26c2.35-2.54,5.6-3.99,9.15-4.09l32.46-.88c3.53-.1,6.97,1.18,9.62,3.57l24.37,22.02c1.29,1.17,2.33,2.54,3.1,4.08.16.32.3.65.45,1.01ZM134.44,62.96h-.77l-.04-.1c-.15-.39-.31-.74-.47-1.08-.75-1.51-1.77-2.85-3.03-3.99l-24.38-22.02c-2.59-2.34-5.96-3.58-9.4-3.49l-32.46.88c-3.46.09-6.63,1.51-8.92,3.99l-21.54,23.26c-.69.75-1.29,1.58-1.77,2.47l-.04.08h-.82l.12-.23c.54-1.03,1.2-1.97,1.98-2.82l21.54-23.26c2.42-2.62,5.77-4.12,9.43-4.21l32.46-.88c3.66-.1,7.18,1.22,9.92,3.69l24.37,22.02c1.33,1.2,2.41,2.62,3.2,4.21.2.41.39.84.55,1.27l.08.21Z"/>
      <path class="cls-4" d="M36.19,110.91l2.65,2.39.68.62,14.08,12.72,1.01.91,5.95,5.38c2.71,2.45,6.2,3.75,9.81,3.65l3.53-.09.91-.03,18.76-.51,1.34-.04,7.93-.22c3.61-.1,6.92-1.58,9.32-4.17l2.34-2.53.6-.65,12.44-13.44.89-.96,5.26-5.69c.33-.35.63-.72.91-1.1h-.53c-.22.28-.45.56-.69.82l-4.41,4.77-.89.96-13.82,14.93-.6.65-1.8,1.95c-2.32,2.51-5.53,3.94-9.03,4.04l-6.65.18-1.34.04-20.84.56-.91.02-2.72.08c-3.5.09-6.88-1.16-9.51-3.54l-4.99-4.51-1.01-.91-15.65-14.13-.68-.62-2.04-1.84c-1.11-1-2.03-2.16-2.75-3.45h-.46c.76,1.41,1.74,2.67,2.94,3.75"/>
      <path class="cls-4" d="M33.51,107.32c.73,1.3,1.67,2.47,2.78,3.47l24.37,22.02c2.67,2.41,6.12,3.7,9.7,3.61l32.46-.88c3.57-.09,6.84-1.56,9.21-4.11l21.54-23.26c.24-.26.48-.54.71-.84h-.14c-.23.29-.44.54-.66.77l-21.54,23.26c-2.36,2.54-5.61,3.99-9.15,4.09l-32.46.88c-3.55.1-6.97-1.18-9.62-3.58l-24.38-22.02c-1.09-.99-2.02-2.14-2.74-3.41h-.1ZM69.98,136.73c-3.51,0-6.89-1.31-9.53-3.69l-24.37-22.02c-1.2-1.09-2.21-2.36-2.97-3.79l-.12-.23h.82l.04.08c.71,1.28,1.63,2.42,2.72,3.41l24.37,22.02c2.5,2.26,5.71,3.5,9.04,3.5.12,0,.24,0,.36,0l32.46-.88c3.46-.09,6.63-1.51,8.92-3.99l21.54-23.26c.22-.24.45-.51.69-.81l.05-.06h.92l-.19.25c-.3.41-.61.77-.92,1.12l-21.54,23.26c-2.43,2.62-5.78,4.12-9.43,4.22l-32.46.88c-.13,0-.26,0-.39,0Z"/>
      <path class="cls-1" d="M41.47,110.23c1.02,2.06,2.6,3.81,4.56,5.06l2.71,1.72.77.49,14.24,9.05,1.15.73,6.1,3.88c2.78,1.77,6.06,2.39,9.24,1.74l3.09-.63.88-.18,16.23-3.3,1.31-.27,6.95-1.41c3.17-.65,5.86-2.48,7.56-5.16l1.66-2.61.47-.74,7.27-11.45h-.49l-7.55,11.89-.47.75-1.23,1.94c-1.65,2.59-4.24,4.36-7.31,4.98l-5.7,1.16-1.31.27-18.26,3.71-.88.18-2.3.47c-3.07.62-6.24.02-8.92-1.69l-5.01-3.18-1.15-.73-16.02-10.19-.77-.49-2.02-1.28c-1.9-1.2-3.42-2.89-4.41-4.88-.39-.8-.7-1.63-.91-2.48l-.1-.42h-.42l.12.5c.21.88.53,1.74.94,2.56"/>
      <path class="cls-1" d="M40.62,107.32l.07.3c.21.88.52,1.73.92,2.54,1.01,2.03,2.57,3.76,4.51,4.99l24.97,15.88c2.03,1.29,4.34,1.97,6.68,1.97.81,0,1.63-.08,2.44-.24l28.46-5.78c3.13-.64,5.78-2.44,7.46-5.09l9.25-14.57h-.12l-9.22,14.51c-1.67,2.63-4.3,4.42-7.41,5.05l-28.46,5.79c-.79.16-1.61.24-2.42.24-2.33,0-4.62-.67-6.62-1.95l-24.97-15.88c-1.92-1.22-3.46-2.93-4.46-4.95-.4-.8-.71-1.65-.92-2.52l-.07-.3h-.1ZM77.77,133.32c-2.41,0-4.78-.7-6.85-2.02l-24.97-15.88c-1.99-1.26-3.58-3.03-4.62-5.12-.41-.83-.73-1.71-.95-2.6l-.17-.69h.74l.13.54c.2.85.51,1.67.89,2.45.97,1.97,2.48,3.63,4.35,4.82l24.97,15.88c2.63,1.68,5.8,2.28,8.81,1.67l28.46-5.79c3.02-.61,5.58-2.36,7.2-4.91l9.31-14.66h.86l-9.56,15.05c-1.73,2.72-4.45,4.57-7.66,5.23l-28.46,5.78c-.82.17-1.66.26-2.5.26Z"/>
      <path class="cls-1" d="M125.22,58.06c-1.02-2.06-2.6-3.81-4.56-5.06l-2.71-1.72-.77-.49-14.24-9.05-1.15-.73-6.1-3.88c-2.78-1.77-6.06-2.39-9.24-1.75l-3.09.63-.88.18-16.23,3.3-1.31.27-6.95,1.41c-3.17.65-5.86,2.48-7.56,5.16l-1.66,2.61-.47.75-8.34,13.13h.5l8.62-13.57.47-.75,1.23-1.94c1.65-2.59,4.24-4.36,7.31-4.98l5.7-1.16,1.31-.27,18.26-3.71.88-.18,2.3-.47c3.07-.62,6.23-.02,8.92,1.69l5.01,3.18,1.15.73,16.02,10.19.77.49,2.02,1.28c1.89,1.21,3.42,2.9,4.41,4.89.39.79.7,1.63.91,2.48l.51,2.09h.42l-.53-2.18c-.22-.88-.53-1.75-.94-2.57"/>
      <path class="cls-1" d="M126.38,62.65h.1l-.48-1.98c-.21-.87-.52-1.73-.92-2.54-1.01-2.03-2.57-3.76-4.51-5l-24.97-15.88c-2.03-1.29-4.34-1.97-6.69-1.97-.81,0-1.63.08-2.43.24l-28.46,5.78c-3.13.64-5.78,2.44-7.46,5.09l-10.32,16.24h.12l10.28-16.19c1.67-2.63,4.3-4.42,7.4-5.05l28.46-5.78c3.08-.63,6.34-.01,9.04,1.71l24.97,15.88c1.92,1.22,3.46,2.93,4.46,4.95.4.81.71,1.65.92,2.52l.48,1.98ZM126.88,62.96h-.74l-.54-2.21c-.2-.84-.5-1.67-.89-2.45-.98-1.97-2.48-3.63-4.35-4.82l-24.97-15.88c-1.96-1.24-4.19-1.9-6.46-1.9-.79,0-1.58.08-2.35.24l-28.46,5.78c-3.02.61-5.58,2.36-7.2,4.91l-10.38,16.33h-.87l10.62-16.73c1.73-2.72,4.45-4.57,7.66-5.23l28.46-5.78c.82-.17,1.66-.25,2.5-.25,2.41,0,4.78.7,6.86,2.02l24.97,15.88c1.99,1.27,3.59,3.04,4.62,5.12.41.83.73,1.71.95,2.6l.58,2.37Z"/>
      <path class="cls-3" d="M117.34,56.58c-1.18-2.69-3.35-4.82-6.07-5.96l-2.65-1.12-.85-.36-13.78-5.8-1.25-.53-5.98-2.52c-2.74-1.15-5.73-1.2-8.43-.13l-2.62,1.03-.83.33-13.57,5.36-1.23.49-5.9,2.33c-2.7,1.07-4.78,3.12-5.85,5.78l-1.04,2.58-.33.82-1.59,3.93h.45l1.82-4.5.33-.82.75-1.85c1.04-2.56,3.04-4.53,5.63-5.56l4.72-1.86,1.23-.49,15.49-6.12.83-.33,1.87-.74c2.59-1.03,5.48-.98,8.11.13l4.79,2.01,1.25.53,15.73,6.62.85.36,1.9.8c2.45,1.03,4.44,2.9,5.61,5.25.08.16.15.32.23.49l2.06,4.71.54,1.23.06.13h.45l-.15-.34-2.57-5.89Z"/>
      <path class="cls-3" d="M119.72,62.65h.1l-2.62-6.01c-1.16-2.66-3.29-4.75-5.98-5.88l-24.52-10.31c-2.69-1.13-5.66-1.18-8.31-.13l-24.16,9.54c-2.66,1.05-4.7,3.07-5.77,5.69l-2.88,7.11h.11l2.86-7.07c1.05-2.6,3.08-4.6,5.72-5.64l24.15-9.54c2.62-1.04,5.57-.99,8.23.13l24.52,10.32c2.49,1.05,4.51,2.94,5.69,5.33.08.16.16.33.23.5l2.61,5.98ZM120.3,62.96h-.79l-2.69-6.17c-.07-.16-.14-.32-.22-.48-1.15-2.32-3.12-4.16-5.53-5.18l-24.52-10.32c-2.59-1.09-5.45-1.13-8-.13l-24.15,9.54c-2.56,1.01-4.53,2.95-5.54,5.47l-2.94,7.26h-.79l3.05-7.54c1.09-2.7,3.2-4.78,5.94-5.86l24.16-9.54c2.72-1.08,5.78-1.03,8.55.14l24.52,10.31c2.77,1.17,4.96,3.32,6.15,6.05l2.81,6.45Z"/>
      <path class="cls-3" d="M49.58,112.22c1.22,2.45,3.29,4.39,5.83,5.46l2.65,1.11.85.36,13.78,5.8,1.26.53,5.98,2.52c2.74,1.15,5.73,1.2,8.43.14l2.62-1.04.83-.33,13.58-5.36,1.24-.49,5.9-2.33c2.7-1.07,4.78-3.12,5.85-5.77l1.04-2.58.33-.82.91-2.25h-.45l-1.14,2.82-.33.82-.75,1.85c-1.04,2.56-3.04,4.53-5.63,5.56l-4.72,1.86-1.24.49-15.49,6.12-.83.33-1.87.74c-2.6,1.03-5.48.98-8.11-.13l-4.79-2.01-1.26-.53-15.72-6.61-.85-.36-1.9-.8c-2.62-1.1-4.71-3.16-5.84-5.74l-1.92-4.4h-.45l1.99,4.55c.08.17.15.34.23.5"/>
      <path class="cls-3" d="M47.6,107.32l1.89,4.33c.07.17.15.33.23.5,1.2,2.41,3.24,4.33,5.75,5.39l24.52,10.31c1.4.59,2.86.89,4.35.89,1.36,0,2.7-.25,3.96-.75l24.16-9.54c2.66-1.05,4.7-3.07,5.76-5.69l2.2-5.43h-.11l-2.18,5.39c-1.05,2.6-3.08,4.6-5.72,5.64l-24.15,9.54c-2.62,1.04-5.57.99-8.23-.13l-24.52-10.32c-2.67-1.12-4.77-3.19-5.92-5.82l-1.88-4.31h-.1ZM84.34,129.05c-1.53,0-3.03-.31-4.47-.91l-24.52-10.31c-2.58-1.09-4.68-3.05-5.91-5.53-.08-.17-.16-.34-.24-.51l-2.08-4.77h.79l1.96,4.49c1.12,2.56,3.16,4.57,5.76,5.66l24.52,10.32c2.58,1.09,5.44,1.13,8,.13l24.15-9.54c2.55-1.01,4.53-2.95,5.55-5.47l2.26-5.58h.79l-2.38,5.87c-1.09,2.7-3.2,4.78-5.94,5.86l-24.16,9.54c-1.3.51-2.68.78-4.08.78Z"/>
      <path class="cls-4" d="M112.13,59.17l-3.2-4.85c-1.47-2.23-3.7-3.79-6.31-4.39l-2.51-.59-.89-.21-12.85-3-1.32-.31-5.67-1.32c-2.6-.61-5.25-.19-7.46,1.18l-2.13,1.32-.76.47-10.93,6.76-1.12.7-4.82,2.98c-1.86,1.15-3.23,2.86-3.92,4.9h.44c.68-1.88,1.97-3.47,3.71-4.55l3.75-2.32,1.12-.69,12.67-7.84.76-.47,1.46-.91c2.12-1.31,4.66-1.71,7.15-1.13l4.41,1.03,1.32.31,14.9,3.48.89.21,1.72.4c2.49.58,4.64,2.08,6.04,4.21l2.49,3.78.74,1.13,2.22,3.37h.49l-1.65-2.51-.74-1.13Z"/>
      <path class="cls-4" d="M114.12,62.65h.11l-5.43-8.24c-1.44-2.19-3.65-3.73-6.21-4.33l-23.24-5.42c-2.54-.59-5.19-.17-7.35,1.16l-19.76,12.23c-1.77,1.09-3.07,2.68-3.78,4.6h.11c.71-1.89,2-3.45,3.74-4.53l19.76-12.23c2.13-1.32,4.76-1.74,7.27-1.15l23.24,5.42c2.53.59,4.71,2.11,6.14,4.28l5.4,8.21ZM114.82,62.96h-.86l-5.5-8.35c-1.38-2.1-3.5-3.57-5.95-4.14l-23.24-5.42c-2.43-.57-4.97-.16-7.03,1.11l-19.76,12.23c-1.71,1.06-2.97,2.6-3.65,4.47l-.04.1h-.77l.07-.21c.72-2.09,2.1-3.81,3.99-4.98l19.76-12.23c2.23-1.38,4.96-1.81,7.58-1.2l23.24,5.42c2.64.62,4.91,2.2,6.4,4.46l5.75,8.73Z"/>
      <path class="cls-4" d="M54.56,109.12l3.2,4.85c1.46,2.23,3.7,3.79,6.31,4.39l2.51.59.89.21,12.85,3,1.32.31,5.67,1.32c2.6.61,5.25.19,7.46-1.18l2.14-1.32.76-.47,10.93-6.76,1.12-.7,4.82-2.98c1.32-.82,2.39-1.92,3.15-3.22h-.49c-.72,1.15-1.7,2.13-2.9,2.87l-3.75,2.32-1.12.7-12.67,7.84-.76.47-1.46.91c-2.12,1.31-4.66,1.71-7.15,1.13l-4.42-1.03-1.32-.31-14.9-3.48-.89-.21-1.72-.4c-2.49-.58-4.64-2.08-6.04-4.21l-2.49-3.78-.74-1.13-1.11-1.69h-.49l.54.83.74,1.13Z"/>
      <path class="cls-4" d="M53.56,107.32l4.32,6.57c1.44,2.19,3.65,3.73,6.21,4.33l23.24,5.42c2.53.59,5.19.17,7.34-1.16l19.77-12.23c1.2-.74,2.22-1.75,2.96-2.93h-.12c-.74,1.15-1.71,2.11-2.9,2.85l-19.77,12.23c-2.13,1.32-4.76,1.74-7.27,1.15l-23.24-5.42c-2.53-.59-4.71-2.11-6.14-4.28l-4.3-6.53h-.11ZM89.63,124.22c-.79,0-1.59-.09-2.37-.28l-23.24-5.42c-2.64-.62-4.92-2.2-6.4-4.46l-4.65-7.05h.86l4.39,6.67c1.38,2.1,3.5,3.57,5.95,4.14l23.24,5.42c2.43.57,4.97.16,7.03-1.11l19.77-12.23c1.17-.73,2.13-1.68,2.85-2.82l.05-.07h.85l-.14.24c-.78,1.32-1.88,2.46-3.21,3.27l-19.77,12.23c-1.56.97-3.36,1.48-5.21,1.48Z"/>
      <path class="cls-1" d="M61.94,110.86l3.58,3.83c1.65,1.76,3.88,2.81,6.27,2.95l2.3.14.91.05,11.58.68,1.35.08,5.2.31c2.39.14,4.67-.64,6.4-2.21l1.67-1.5.66-.59,8.25-7.44h-.62l-8.5,7.66-.66.59-1.08.98c-1.65,1.49-3.82,2.24-6.11,2.1l-3.92-.23-1.35-.08-13.67-.81-.91-.05-1.49-.09c-2.28-.13-4.4-1.13-5.98-2.82l-2.7-2.89-.93-.99-3.17-3.39h-.55l2.53,2.71.93.99Z"/>
      <path class="cls-1" d="M58.84,107.32l6.8,7.27c1.62,1.74,3.81,2.77,6.16,2.9l21.33,1.26c2.35.14,4.6-.64,6.29-2.17l10.28-9.26h-.15l-10.2,9.19c-1.67,1.51-3.9,2.28-6.22,2.14l-21.33-1.26c-2.32-.14-4.48-1.16-6.08-2.87l-6.74-7.21h-.12ZM93.67,119.08c-.19,0-.37,0-.56-.02l-21.33-1.26c-2.43-.14-4.7-1.21-6.37-3l-7.29-7.8h.98l6.84,7.31c1.54,1.65,3.63,2.63,5.87,2.77l21.33,1.26c2.23.14,4.38-.61,5.99-2.06l10.29-9.27h1.09l-10.88,9.81c-1.62,1.46-3.73,2.27-5.96,2.27Z"/>
      <path class="cls-1" d="M104.75,57.43l-3.58-3.83c-1.65-1.76-3.88-2.81-6.27-2.95l-2.3-.13-.91-.05-11.58-.68-1.35-.08-5.2-.31c-2.39-.14-4.67.64-6.4,2.21l-1.67,1.5-.66.59-8.4,7.57-.97.88-.74.67h.62l.45-.4,9.91-8.93.66-.59,1.08-.98c1.66-1.49,3.82-2.24,6.11-2.1l3.92.23,1.34.08,13.67.8.91.05,1.49.09c2.28.13,4.4,1.13,5.98,2.82l2.7,2.89.92.99,4.73,5.06h.55l-4.1-4.39-.92-.99Z"/>
      <path class="cls-1" d="M109.29,62.65h.12l-8.36-8.95c-1.62-1.73-3.81-2.77-6.16-2.9l-21.33-1.26c-2.34-.14-4.59.64-6.29,2.17l-12.14,10.94h.16l12.06-10.87c1.68-1.51,3.9-2.27,6.22-2.14l21.33,1.26c2.32.13,4.48,1.15,6.08,2.86l8.31,8.89ZM110.14,62.96h-.99l-8.4-8.99c-1.55-1.65-3.63-2.63-5.87-2.77l-21.33-1.26c-2.24-.14-4.38.61-5.99,2.06l-12.15,10.95h-1.09l12.74-11.49c1.76-1.58,4.08-2.38,6.52-2.25l21.33,1.26c2.43.14,4.7,1.21,6.37,3l8.86,9.48Z"/>
      <path class="cls-4" d="M97.97,57.01l-3.76-2.86c-1.74-1.32-3.87-1.92-6.01-1.67l-2.04.23-.9.1-10.09,1.15-1.33.15-4.63.53c-2.14.24-4.02,1.29-5.3,2.96l-1.23,1.59-.54.7-2.24,2.91h.53l2.53-3.28.54-.7.75-.97c1.22-1.58,3-2.58,5.03-2.81l3.36-.38,1.33-.15,12.16-1.39.9-.1,1.24-.14c2.03-.23,4.05.33,5.7,1.59l2.73,2.08,1.08.82,7.15,5.44h.66l-6.54-4.97-1.08-.83Z"/>
      <path class="cls-4" d="M104.98,62.65h.15l-11.01-8.38c-1.46-1.11-3.17-1.69-4.97-1.69-.31,0-.62.02-.92.05l-18.99,2.17c-2.09.24-3.94,1.27-5.2,2.9l-3.82,4.96h.13l3.77-4.9c1.24-1.61,3.07-2.63,5.13-2.87l18.99-2.16c.3-.04.61-.05.91-.05,1.77,0,3.47.58,4.9,1.67l10.92,8.31ZM106.06,62.96h-1.18l-.04-.03-10.96-8.34c-1.38-1.05-3.01-1.61-4.71-1.61-.29,0-.59.02-.88.05l-18.99,2.16c-1.98.23-3.73,1.2-4.92,2.75l-3.87,5.02h-.92l4.21-5.46c1.31-1.7,3.23-2.77,5.41-3.02l18.99-2.17c.32-.04.64-.05.96-.05,1.87,0,3.65.61,5.16,1.76l11.75,8.94Z"/>
      <path class="cls-4" d="M68.72,111.28l3.76,2.86c1.74,1.32,3.87,1.92,6.01,1.67l2.04-.23.9-.1,10.09-1.15,1.33-.15,4.63-.53c2.13-.25,4.02-1.3,5.3-2.96l1.23-1.59.54-.7.95-1.23h-.53l-1.24,1.61-.54.7-.75.97c-1.22,1.58-3.01,2.58-5.03,2.81l-3.36.38-1.33.15-12.16,1.39-.9.1-1.24.14c-2.03.23-4.05-.33-5.7-1.59l-2.73-2.08-1.08-.82-4.94-3.76h-.66l4.33,3.3,1.08.83Z"/>
      <path class="cls-4" d="M63.77,107.32l8.81,6.7c1.46,1.11,3.17,1.7,4.97,1.7.31,0,.62-.02.92-.05l18.99-2.16c2.09-.24,3.94-1.27,5.2-2.9l2.53-3.28h-.13l-2.48,3.21c-1.24,1.62-3.07,2.64-5.14,2.87l-18.99,2.17c-2.07.23-4.13-.34-5.81-1.62l-8.72-6.63h-.15ZM77.55,116.03c-1.86,0-3.65-.61-5.16-1.76l-9.55-7.26h1.18l.04.03,8.76,6.66c1.62,1.23,3.6,1.78,5.59,1.56l18.99-2.17c1.99-.23,3.73-1.2,4.93-2.75l2.57-3.34h.92l-2.92,3.78c-1.31,1.7-3.23,2.77-5.41,3.02l-18.99,2.16c-.32.03-.64.05-.96.05Z"/>
      <path class="cls-3" d="M93.13,58.31l-1.2-.63-3.77-1.97c-1.75-.91-3.72-1.12-5.57-.57l-1.76.52-.86.26-8.51,2.52-1.27.38-3.99,1.18c-1.6.47-2.94,1.46-3.83,2.81h.51c.84-1.16,2.04-2,3.46-2.42l2.77-.82,1.27-.38,10.49-3.11.86-.26.99-.29c1.74-.52,3.61-.33,5.26.54l2.62,1.37,1.2.63,9.06,4.74h.87l-.56-.29-8.03-4.2Z"/>
      <path class="cls-3" d="M100.89,62.65h.19l-13-6.81c-1.69-.89-3.67-1.09-5.46-.56l-16.39,4.86c-1.47.44-2.7,1.3-3.58,2.51h.13c.86-1.16,2.07-2,3.49-2.42l16.39-4.86c1.76-.52,3.71-.32,5.38.55l12.85,6.72ZM102.36,62.96l-1.58-.02-12.88-6.74c-1.59-.84-3.46-1.02-5.14-.53l-16.39,4.86c-1.38.41-2.55,1.23-3.37,2.37l-.05.07h-.88l.16-.24c.92-1.4,2.28-2.39,3.92-2.88l16.39-4.86c1.87-.55,3.93-.34,5.69.58l14.13,7.4Z"/>
      <path class="cls-3" d="M74.76,110.61l3.77,1.97c1.74.92,3.72,1.12,5.57.57l1.76-.52.86-.26,8.51-2.52,1.28-.38,3.99-1.18c.83-.25,1.59-.63,2.26-1.14h-.73c-.51.32-1.06.57-1.66.75l-2.77.82-1.28.38-10.48,3.11-.86.26-.99.3c-1.74.52-3.61.33-5.26-.54l-2.62-1.37-1.2-.63-5.85-3.06h-.87l5.39,2.82,1.2.63Z"/>
      <path class="cls-3" d="M68.81,107.32l9.79,5.13c1.69.89,3.66,1.09,5.45.56l16.39-4.86c.65-.19,1.25-.47,1.81-.83h-.19c-.51.32-1.07.57-1.66.74l-16.39,4.86c-1.76.53-3.71.32-5.37-.55l-9.64-5.05h-.19ZM82.02,113.61c-1.22,0-2.45-.31-3.56-.89l-10.92-5.72,1.58.02,9.67,5.07c1.59.83,3.45,1.02,5.14.53l16.39-4.86c.57-.17,1.12-.42,1.62-.73l.04-.02h1.24l-.37.28c-.69.52-1.47.91-2.31,1.16l-16.39,4.86c-.69.21-1.4.31-2.12.31Z"/>
      <path class="cls-5" d="M79.99,109.09l3.63,1.17c1.69.55,3.47.42,5.01-.35l1.46-.73.8-.4,3.23-1.62h-.93l-3.21,1.61-.8.4-.75.38c-1.45.73-3.12.84-4.7.33l-2.4-.78-1.29-.42-4.68-1.52h-1.31l4.64,1.51,1.3.42Z"/>
      <path class="cls-5" d="M75.04,107.32l8.62,2.8c.67.22,1.36.33,2.05.33,1,0,1.95-.23,2.84-.67l4.9-2.45h-.23l-4.73,2.37c-1.48.74-3.2.86-4.82.34l-8.35-2.71h-.29ZM85.72,110.76c-.72,0-1.45-.12-2.15-.35l-10.51-3.41h2.35s8.38,2.72,8.38,2.72c1.54.5,3.17.38,4.58-.32l4.83-2.4h1.59l-6.08,3.05c-.93.47-1.94.7-2.98.7Z"/>
      <path class="cls-5" d="M95.53,62.07l-7.53-2.44-1.29-.42-3.63-1.18c-1.69-.55-3.47-.42-5.01.35l-1.46.73-.8.4-6.57,3.3h.92l6.56-3.29.8-.4.76-.38c1.45-.73,3.12-.84,4.7-.33l2.4.78,1.29.42,9.53,3.09.32.1h1.31l-1.41-.46-.87-.28Z"/>
      <path class="cls-5" d="M96.53,62.65h.29l-13.79-4.48c-1.65-.53-3.39-.41-4.9.34l-8.24,4.13h.23l8.08-4.05c1.48-.74,3.2-.86,4.82-.34l13.52,4.39ZM98.8,62.96h-2.35s-13.55-4.4-13.55-4.4c-1.54-.5-3.17-.38-4.58.32l-8.18,4.08h-1.59l9.43-4.73c.93-.47,1.94-.7,2.98-.7.72,0,1.45.12,2.15.34l15.68,5.09Z"/>
      <path class="cls-2" d="M90.49,62.55l-6.81-.99-1.34-.19-3.38-.49c-1.58-.23-3.13.16-4.38,1.09l-1.12.84h.7l.15-.11.53-.4c1.16-.87,2.6-1.23,4.07-1.02l2.11.31,1.34.19,7.08,1.03h2.82l-.87-.13-.91-.13Z"/>
      <path class="cls-2" d="M78.09,61.06c.28,0,.57.02.85.06l10.52,1.53h.64l-11.16-1.62c-1.53-.22-3.05.16-4.26,1.06l-.74.56h.17l.64-.48c.96-.72,2.12-1.11,3.34-1.11ZM92.26,62.96h-2.82l-10.55-1.53c-1.42-.21-2.84.15-3.96.99l-.73.54h-1.22l1.5-1.12c1.27-.96,2.88-1.36,4.5-1.12l13.3,1.93-.02.31Z"/>
      <polygon class="cls-6" points="4.46 91.76 5.58 91.76 7.31 95.15 7.32 95.15 7.32 91.76 8.19 91.76 8.19 96.29 7.08 96.29 5.35 92.91 5.33 92.91 5.33 96.29 4.46 96.29 4.46 91.76"/>
      <path class="cls-6" d="M9.81,94.54c0,.07,0,.13.01.19,0,.07.02.14.03.21.03.14.07.27.13.38.06.11.15.2.26.27.1.07.24.11.4.11s.31-.03.42-.1c.11-.07.19-.15.26-.27.07-.11.11-.24.13-.38.02-.13.03-.27.03-.41,0-.27-.07-.5-.2-.7-.14-.19-.36-.29-.64-.3-.28,0-.49.11-.62.3-.14.2-.21.43-.21.69M8.9,94.65c0-.56.17-.99.51-1.31.32-.31.74-.46,1.24-.47.51,0,.93.16,1.25.47.33.31.5.75.5,1.31,0,.49-.15.89-.45,1.22-.3.33-.74.5-1.3.51-.55,0-.98-.18-1.28-.51-.31-.32-.46-.73-.46-1.22"/>
      <path class="cls-6" d="M13.08,92.95h.82v.45h.01c.28-.36.64-.54,1.1-.53.39,0,.68.13.87.37.18.24.27.56.27.94v2.11h-.87v-1.79c0-.11,0-.22,0-.33,0-.11-.03-.21-.07-.31-.03-.1-.08-.18-.16-.24-.08-.05-.19-.08-.33-.08-.16,0-.28.04-.38.11s-.17.17-.23.28c-.06.11-.09.23-.12.36-.03.13-.04.25-.04.36v1.64h-.87v-3.35h0Z"/>
      <rect class="cls-6" x="16.83" y="94.19" width="1.71" height=".71"/>
      <path class="cls-6" d="M20.12,93.86h.32c.24,0,.44-.04.61-.14.17-.1.25-.28.25-.53,0-.13-.02-.25-.06-.34-.05-.09-.11-.16-.19-.22-.16-.1-.37-.16-.61-.16h-.32v1.38h0ZM19.21,91.76h1.15c.51,0,.95.09,1.32.27.37.19.56.56.57,1.1,0,.52-.17.89-.5,1.11-.33.22-.74.34-1.25.33h-.38v1.72h-.91v-4.53Z"/>
      <path class="cls-6" d="M22.84,92.95h.77v.76h.01c.03-.17.12-.35.29-.54.16-.19.37-.29.63-.3.09,0,.18,0,.27.03v.88c-.09-.05-.22-.07-.39-.07s-.31.05-.4.14c-.09.09-.17.21-.21.36-.04.14-.07.29-.08.44,0,.15-.01.29-.01.42v1.23h-.87v-3.34Z"/>
      <path class="cls-6" d="M25.92,94.54c0,.07,0,.13.01.19,0,.07.02.14.03.21.03.14.07.27.13.38.06.11.15.2.26.27.1.07.24.11.4.11s.31-.03.42-.1c.11-.07.2-.15.26-.27.07-.11.11-.24.13-.38.02-.13.03-.27.03-.41,0-.27-.07-.5-.2-.7-.14-.19-.36-.29-.64-.3-.28,0-.49.11-.62.3-.14.2-.21.43-.21.69M25.01,94.65c0-.56.17-.99.51-1.31.32-.31.74-.46,1.24-.47.51,0,.93.16,1.25.47.33.31.49.75.5,1.31,0,.49-.15.89-.45,1.22-.3.33-.74.5-1.3.51-.55,0-.98-.18-1.28-.51-.3-.32-.46-.73-.46-1.22"/>
      <path class="cls-6" d="M31.73,92.95h.87v3.34h-.87v-3.34ZM31.73,91.51h.87v.83h-.87v-.83ZM29.51,93.59h-.64v-.64h.64v-.47c0-.34.09-.62.28-.82.18-.2.44-.31.78-.31.24,0,.45.03.64.07l-.07.72s-.08-.06-.14-.08c-.06-.02-.14-.03-.23-.03-.14,0-.24.06-.3.16-.06.1-.08.22-.08.36v.41h.76v.64h-.76v2.71h-.87v-2.71h0Z"/>
      <path class="cls-6" d="M33.81,93.59h-.64v-.64h.64v-.67l.87-.28v.95h.77v.64h-.77v1.56c0,.15.02.27.08.38.06.11.16.17.32.18.16,0,.3-.03.39-.09l.03.69c-.17.05-.39.08-.64.08-.7-.02-1.05-.38-1.06-1.08v-1.7h0Z"/>
      <path class="cls-6" d="M38.66,94.02c0,.42.09.8.29,1.12.2.34.53.51.98.52.23,0,.43-.05.6-.14.17-.09.3-.22.39-.38.19-.32.28-.7.28-1.12s-.1-.79-.29-1.11c-.2-.33-.53-.5-.98-.51-.45,0-.77.18-.97.51-.2.32-.31.69-.31,1.11M37.71,94.02c0-.7.19-1.27.57-1.69.38-.42.93-.64,1.65-.64.72,0,1.27.22,1.65.65.38.42.57.98.57,1.68,0,.7-.19,1.26-.56,1.69-.38.43-.93.66-1.66.67-.73,0-1.28-.23-1.65-.66-.38-.42-.57-.99-.57-1.69"/>
      <path class="cls-6" d="M42.92,92.95h.77v.76h.01c.03-.17.12-.35.29-.54.16-.19.37-.29.63-.3.09,0,.18,0,.27.03v.88c-.09-.05-.22-.07-.39-.07s-.31.05-.4.14c-.09.09-.17.21-.21.36-.04.14-.07.29-.08.44,0,.15-.01.29-.01.42v1.23h-.87v-3.34Z"/>
      <path class="cls-6" d="M46.86,95.62c.27,0,.47-.11.59-.31.12-.19.18-.43.18-.72s-.06-.54-.17-.73c-.12-.2-.31-.3-.56-.3-.29,0-.49.12-.6.33-.12.21-.18.45-.18.73,0,.24.06.47.19.67.06.1.14.18.23.24.09.07.2.1.32.1M48.5,92.95v3.02c0,.11,0,.22-.01.33-.01.11-.03.22-.06.32-.05.21-.15.4-.28.56-.12.17-.31.29-.54.39-.23.1-.52.15-.87.16-.35,0-.73-.07-1.15-.23l.07-.74c.14.07.31.14.49.19.18.06.34.09.49.1.24,0,.43-.05.57-.12.14-.08.23-.19.3-.31.07-.13.11-.27.12-.42,0-.15.01-.3.01-.44h-.01c-.08.15-.21.27-.39.37-.18.11-.4.16-.65.16-.49,0-.84-.18-1.04-.51-.22-.32-.32-.71-.32-1.17,0-.42.11-.82.34-1.17.22-.36.58-.54,1.08-.56.44,0,.78.17,1.03.53h.01v-.45h.83Z"/>
      <path class="cls-6" d="M50.01,95.33c0,.14.05.24.16.31.1.07.23.1.39.1.27,0,.47-.1.61-.3.12-.19.19-.42.18-.69h-.53c-.05,0-.1,0-.16.01-.11.01-.22.04-.32.08-.1.04-.18.1-.24.18-.07.08-.1.18-.1.31M49.54,93.13c.37-.16.76-.25,1.16-.25.97-.01,1.45.46,1.44,1.41v.43c0,.32,0,.6.01.84,0,.25.02.49.04.75h-.77c-.03-.2-.04-.37-.04-.5h-.01c-.1.18-.25.32-.43.42-.19.1-.39.16-.6.16-.3,0-.57-.09-.8-.26-.24-.17-.37-.41-.37-.73,0-.25.06-.45.17-.61.1-.16.24-.27.4-.34.17-.08.36-.14.55-.16.2-.02.39-.03.57-.03h.48c0-.27-.06-.46-.18-.57-.12-.1-.31-.16-.57-.16-.38,0-.73.12-1.03.36l-.03-.75Z"/>
      <path class="cls-6" d="M53,92.95h.82v.45h.01c.28-.36.64-.54,1.1-.53.39,0,.68.13.87.37.18.24.27.56.27.94v2.11h-.87v-1.79c0-.11,0-.22,0-.33s-.03-.21-.07-.31c-.03-.1-.08-.18-.16-.24-.08-.05-.19-.08-.33-.08-.16,0-.28.04-.38.11s-.17.17-.23.28c-.06.11-.09.23-.12.36-.03.13-.04.25-.04.36v1.64h-.87v-3.35h0Z"/>
      <path class="cls-6" d="M56.98,92.95h.87v3.34h-.87v-3.34ZM56.98,91.51h.87v.83h-.87v-.83Z"/>
      <polygon class="cls-6" points="58.63 92.95 61.28 92.95 61.28 93.67 59.61 95.62 61.33 95.62 61.33 96.29 58.56 96.29 58.56 95.59 60.25 93.63 58.63 93.63 58.63 92.95"/>
      <path class="cls-6" d="M62.63,95.33c0,.14.05.24.16.31.1.07.23.1.39.1.27,0,.47-.1.61-.3.12-.19.19-.42.18-.69h-.53c-.05,0-.1,0-.16.01-.11.01-.22.04-.32.08-.1.04-.18.1-.24.18-.07.08-.1.18-.1.31M62.16,93.13c.37-.16.76-.25,1.16-.25.97-.01,1.45.46,1.44,1.41v.43c0,.32,0,.6.01.84,0,.25.02.49.04.75h-.77c-.03-.2-.04-.37-.04-.5h-.01c-.1.18-.25.32-.43.42-.19.1-.39.16-.6.16-.3,0-.57-.09-.8-.26-.24-.17-.37-.41-.37-.73,0-.25.06-.45.17-.61.1-.16.24-.27.4-.34.17-.08.36-.14.55-.16.2-.02.39-.03.57-.03h.48c0-.27-.06-.46-.18-.57-.12-.1-.31-.16-.57-.16-.38,0-.73.12-1.03.36l-.02-.75Z"/>
      <path class="cls-6" d="M65.91,93.59h-.64v-.64h.64v-.67l.87-.28v.95h.77v.64h-.77v1.56c0,.15.02.27.08.38.06.11.16.17.32.18.16,0,.3-.03.39-.09l.03.69c-.17.05-.39.08-.64.08-.7-.02-1.05-.38-1.06-1.08v-1.7h0Z"/>
      <path class="cls-6" d="M68.17,92.95h.87v3.34h-.87v-3.34ZM68.17,91.51h.87v.83h-.87v-.83Z"/>
      <path class="cls-6" d="M70.65,94.54c0,.07,0,.13.01.19,0,.07.02.14.03.21.03.14.07.27.13.38.06.11.15.2.26.27.1.07.24.11.4.11s.31-.03.42-.1c.11-.07.2-.15.26-.27.07-.11.11-.24.13-.38.02-.13.03-.27.03-.41,0-.27-.07-.5-.2-.7-.14-.19-.36-.29-.64-.3-.28,0-.49.11-.62.3-.14.2-.21.43-.21.69M69.74,94.65c0-.56.17-.99.51-1.31.32-.31.74-.46,1.24-.47.51,0,.93.16,1.25.47.33.31.49.75.5,1.31,0,.49-.15.89-.45,1.22-.3.33-.74.5-1.3.51-.55,0-.98-.18-1.28-.51-.31-.32-.46-.73-.46-1.22"/>
      <path class="cls-6" d="M73.92,92.95h.82v.45h.01c.28-.36.64-.54,1.1-.53.39,0,.68.13.87.37.18.24.27.56.27.94v2.11h-.87v-1.79c0-.11,0-.22,0-.33,0-.11-.03-.21-.07-.31-.03-.1-.08-.18-.16-.24-.08-.05-.19-.08-.33-.08-.16,0-.28.04-.38.11s-.17.17-.23.28c-.06.11-.09.23-.12.36-.03.13-.04.25-.04.36v1.64h-.87v-3.35h0Z"/>
      <path class="cls-6" d="M10.23,80.95c-4.03,0-4.1.38-4.1,2.01s.82,2.12,3.26,2.12,3.19-.6,3.19-2.41v-1.74l-2.36.02ZM14.66,86.45c-.33.18-.72.2-1-.17,0,0-.2-.27-.43-.89-.95.99-2.41,1.24-3.83,1.24-3.7,0-4.93-.89-4.93-3.66s.99-3.56,5.77-3.56l2.36.02c0-3.9-1.07-4.17-3.46-4.17h-2.19c-.37,0-.62-.25-.62-.62v-.3c0-.37.25-.62.62-.62h2.19c4.01,0,5.13,1.54,5.15,5.7l-.02,1.97c.04,3.08.6,3.79.74,4.28.12.38,0,.6-.34.77"/>
      <path class="cls-6" d="M17.96,86.42c-.34.18-.72.2-1-.17,0,0-1.07-1.35-1.07-5.12v-8.3c0-.37.25-.62.62-.62h.43c.37,0,.62.25.62.62v8.28c0,3.29.6,4.03.74,4.53.12.39,0,.61-.33.77"/>
      <path class="cls-6" d="M20.72,80.08c0,3.81.42,4.98,3.35,4.98s3.34-1.17,3.34-4.98-.42-4.98-3.34-4.98c-2.93,0-3.35,1.17-3.35,4.98M29.15,80.08c0,4.97-1.07,6.52-5.08,6.52s-5.08-1.55-5.08-6.52,1.07-6.52,5.08-6.52c4.01,0,5.08,1.55,5.08,6.52"/>
      <path class="cls-6" d="M40.81,85.9c0,.22-.14.39-.39.5-.15.08-.3.13-.45.13-.2,0-.39-.08-.55-.3,0,0-.23-.3-.5-1-.69.9-2.01,1.37-3.74,1.37-3.65,0-4.85-1.2-4.85-4.85v-7.44c0-.37.25-.62.63-.62h.4c.39,0,.64.25.64.62v7.44c0,2.49.62,3.31,3.18,3.31s3.18-.82,3.18-3.31v-7.44c0-.37.25-.62.62-.62h.43c.37,0,.62.25.62.62v6.8c0,3.29.6,4.01.74,4.52.04.1.05.19.05.27"/>
      <path class="cls-6" d="M43.54,86.42c-.34.18-.72.2-1-.17,0,0-1.07-1.35-1.07-5.12v-8.3c0-.37.25-.62.62-.62h.43c.37,0,.62.25.62.62v8.28c0,3.29.6,4.03.74,4.53.12.39,0,.61-.33.77"/>
      <path class="cls-6" d="M50.08,80.95c-4.03,0-4.1.39-4.1,2.01s.82,2.12,3.26,2.12,3.2-.6,3.2-2.41v-1.74l-2.36.02ZM54.51,86.45c-.34.18-.72.2-1-.17,0,0-.2-.27-.43-.89-.95.99-2.41,1.24-3.83,1.24-3.7,0-4.93-.89-4.93-3.66s.99-3.56,5.77-3.56l2.36.02c0-3.9-1.07-4.17-3.46-4.17h-2.19c-.37,0-.62-.25-.62-.62v-.3c0-.37.25-.62.62-.62h2.19c4.01,0,5.13,1.54,5.15,5.7l-.02,1.97c.03,3.08.6,3.79.73,4.28.12.38,0,.6-.33.77"/>
      <path class="cls-6" d="M161.3,72.82h-.41c-.34,0-.58.23-.58.57v7.7c0,3.07-.56,3.75-.69,4.22-.11.36,0,.56.31.72.31.17.67.19.93-.16,0,0,1-1.26,1-4.76v-7.72c0-.34-.23-.57-.58-.57"/>
      <path class="cls-6" d="M157.92,73.39c0-.34-.23-.57-.58-.57h-.41c-.34,0-.58.23-.58.57v7.7c0,.14,0,.61,0,.74-.05.74-.17,1.3-.35,1.73v-.21s-2.34-1.79-2.83-6.39l-.39-3.56c-.05-.36-.33-.57-.67-.57h-.41c-.34,0-.5.22-.47.57l.37,3.55c.45,4.34,2.41,6.69,3.57,7.59-.51.29-1.18.37-2.04.37h-2.04c-.34,0-.58.23-.58.58v.28c0,.34.23.58.58.58h2.04c3.4,0,4.57-1.28,4.76-4.41,0-.16,0-.65,0-.82v-7.72h0Z"/>
      <path class="cls-6" d="M138.46,81.11v-7.72c0-.34-.23-.58-.58-.58h-.41c-.34,0-.58.23-.58.58v7.7c0,.14,0,.61,0,.74h.08s-.07,0-.07,0c0,2.27-.48,3.04-2.11,3.04-1.61,0-2-.06-2-3.82h-.02c-.04-3.26-.92-4.37-3.57-4.37s-3.45.89-3.47,5.13h0c0,2.33-.81,2.99-3.62,3.1-.29.01.53.02.2.02-3.58,0-4.66-.55-4.66-3.11,0-1.2.23-1.93.84-2.4.27-.2.36-.48.19-.76l-.27-.45c-.16-.28-.47-.39-.73-.22-1.07.69-1.46,1.83-1.46,3.83,0,3.74,1.43,4.73,6.09,4.73.41,0-.34,0,.01-.02,3.63-.17,4.85-1.25,4.9-4.46h0s0-.07,0-.11c0-.05,0-.09,0-.13h0c.02-3.5.41-3.57,1.96-3.57s2.07.76,2.07,3.04h0c.03,4.25.81,5.15,3.54,5.15,2.76,0,3.64-1.15,3.64-4.59h0c0-.2,0-.58,0-.73"/>
      <path class="cls-6" d="M144.97,82.93c-2.73,0-3.11-1.09-3.11-4.64s.39-4.64,3.11-4.64,3.11,1.09,3.11,4.64c0,3.55-.39,4.64-3.11,4.64M144.94,72.22c-3.7,0-4.7,1.48-4.7,6.04s1,6.1,4.53,6.1c1.29,0,2.28-.25,3.04-.86-.44,1.28-1.39,1.41-2.93,1.41h-2.04c-.34,0-.58.23-.58.58v.28c0,.34.23.58.58.58h2.04c3.4,0,4.57-1.19,4.76-4.32v-4.13c0-4.25-1.06-5.68-4.7-5.68"/>
      <path class="cls-6" d="M121.96,78.78c.34-.09.48-.27.45-.64-.03-.48-.45-1.27.15-4.27l.07-.34c.07-.34-.12-.61-.45-.68l-.39-.08c-.34-.07-.61.12-.68.45l-.07.35c-.68,3.44.05,4.87.05,4.87.19.39.54.44.88.34"/>
      <rect class="cls-6" x="91" y="91.74" width=".74" height=".73"/>
      <rect class="cls-6" x="89.91" y="91.74" width=".73" height=".73"/>
      <rect class="cls-6" x="94.08" y="96.96" width=".73" height=".73"/>
      <path class="cls-6" d="M91.45,94.72c0,.5-.33.7-.66.7-.42,0-.65-.22-.65-.65,0-.46.23-.75.68-.75h.62v.7h0ZM95.17,95.57h-2.34c-.37,0-.52-.17-.52-.67v-1.62h-1.48c-1.05,0-1.55.64-1.55,1.48s.67,1.37,1.47,1.37c.41,0,.77-.21.97-.48.15.4.48.67.92.67h3.45v-2.73h-.91v1.98h0Z"/>
      <rect class="cls-6" x="95.17" y="96.96" width=".74" height=".73"/>
      <rect class="cls-6" x="101.11" y="96.96" width=".73" height=".73"/>
      <rect class="cls-6" x="102.2" y="96.96" width=".74" height=".73"/>
      <path class="cls-6" d="M106.66,93.18c-.96,0-1.83.62-1.88,1.48h.82c.06-.39.55-.77,1.06-.77.57,0,1,.39,1.08,1.01.04.31.12.67.12.67h-4.86c-.26,0-.55-.18-.55-.63v-1.35h-.91v1.48c0,.38-.27.5-.45.5h-2.12c-.31,0-.68-.09-.68-.53v-1.45h-.92v2.63c0,.64-.13.95-.49.95-.14,0-.26-.02-.37-.08v.66c.16.07.38.1.57.1.92,0,1.21-.66,1.21-1.63v-.3h.03c.09.25.42.4.66.4h2.12c.27,0,.75-.09,1.07-.45.17.23.51.45.84.45h5.86c-.08-.31-.11-.42-.21-1.37-.11-1.04-.75-1.79-1.99-1.79"/>
      <rect class="cls-6" x="106.26" y="91.74" width=".91" height=".75"/>
      <rect class="cls-6" x="111.49" y="91.74" width=".73" height=".73"/>
      <rect class="cls-6" x="112.58" y="91.74" width=".74" height=".73"/>
      <rect class="cls-6" x="117.6" y="96.96" width=".74" height=".73"/>
      <rect class="cls-6" x="116.51" y="96.96" width=".73" height=".73"/>
      <path class="cls-6" d="M113.03,94.72c0,.5-.33.7-.66.7-.42,0-.65-.22-.65-.65,0-.46.23-.75.68-.75h.62v.7h0ZM120.92,95.57h-2.51c-.26,0-.54-.19-.54-.63v-1.35h-.91v1.48c0,.39-.27.5-.44.5h-2.1c-.37,0-.52-.17-.52-.67v-1.62h-1.49c-1.05,0-1.55.64-1.55,1.48s.67,1.37,1.47,1.37c.41,0,.77-.21.97-.48.15.4.48.67.92.67h2.3c.27,0,.75-.09,1.07-.44.17.22.51.44.84.44h3.43v-2.73h-.91v1.98Z"/>
      <path class="cls-6" d="M121.11,92.45c0-.14.08-.22.17-.22.1,0,.18.06.19.18h.35c-.01-.33-.28-.46-.53-.46-.33,0-.55.17-.55.47,0,.1.03.18.09.25v.02h-.21v.3h1.21v-.3h-.51c-.15,0-.21-.1-.21-.24"/>
      <rect class="cls-6" x="133.67" y="91.74" width=".91" height=".75"/>
      <path class="cls-6" d="M133.66,95.57h-2.69c-.22,0-.36-.13-.36-.45v-1.53h-.91v1.56c0,.32-.15.45-.47.45s-.53-.13-.53-.45v-1.43h-.91v1.43c0,.32-.15.45-.47.45s-.53-.13-.53-.45v-1.3h-.91v1.27c0,.32-.14.45-.36.45h-2.01v-3.83h-.91v4.59h3.4c.33,0,.62-.31.64-.4h.03c.09.25.44.42.9.42s.78-.13.98-.42h.02c.1.25.45.42.9.42s.78-.13.98-.42h.03c.09.25.42.4.66.4h3.43v-2.73h-.91v1.98h0Z"/>
      <rect class="cls-6" x="138.39" y="91.74" width=".74" height=".73"/>
      <rect class="cls-6" x="137.3" y="91.74" width=".73" height=".73"/>
      <rect class="cls-6" x="142.31" y="96.96" width=".73" height=".73"/>
      <rect class="cls-6" x="143.4" y="96.96" width=".74" height=".73"/>
      <path class="cls-6" d="M153.89,95.81c-.5,0-.75-.39-.75-.86s.25-.87.75-.87.74.39.74.87-.25.86-.74.86M148.14,95.61c-.52,0-.66-1.23-.93-1.5h1.26c.28,0,.52.13.52.4,0,.45-.33,1.1-.85,1.1M138.84,94.72c0,.5-.33.7-.66.7-.42,0-.65-.22-.65-.65,0-.46.23-.75.68-.75h.62v.7ZM161.67,94.96c-.11-1.03-.75-1.79-2-1.79-.96,0-1.83.62-1.88,1.48h.82c.06-.39.55-.77,1.06-.77.57,0,1,.39,1.09,1.01.04.31.12.67.12.67h-4.7c-.28,0-.6-.12-.6-.43v-.18c0-1.07-.74-1.58-1.7-1.58s-1.7.52-1.7,1.58v.18c0,.32-.31.43-.6.43h-.12s-1.83,0-2.03,0v-.03c.38-.37.46-.69.46-1.01,0-.83-.51-1.16-1.26-1.16h-2.62v.12c.46.45.66,1.62,1.09,2.05v.03h-2.9c-.26,0-.55-.19-.55-.63v-1.35h-.91v1.48c0,.39-.27.5-.45.5h-2.1c-.37,0-.52-.17-.52-.67v-1.62h-1.48c-1.05,0-1.55.64-1.55,1.48s.68,1.37,1.47,1.37c.41,0,.77-.21.97-.48.15.4.48.67.92.67h2.3c.27,0,.75-.09,1.07-.44.17.22.51.44.84.44h7.43c.34,0,.67-.2.81-.44.3.43.82.63,1.43.63s1.13-.2,1.43-.63c.15.24.47.44.81.44h5.74c-.07-.31-.1-.42-.21-1.37"/>
      <rect class="cls-6" x="159.1" y="96.94" width=".91" height=".75"/>
    </g>
  </g>
</svg>